<?xml version="1.0" standalone="yes"?>
<svg xmlns="http://www.w3.org/2000/svg" width="427" height="403">
<path style="fill:#0057b8; stroke:none;" d="M0 0L0 403L427 403L427 0L0 0z"/>
<path style="fill:#0057b6; stroke:none;" d="M160 138L160 144L220 144C231.518 144 243.646 142.892 255 145C255.722 142.582 255.948 140.528 256 138L160 138z"/>
<path style="fill:#0a5fc0; stroke:none;" d="M142 148C155.005 143.319 169.276 145 183 145L253 145C245.841 141.996 234.744 144 227 144L168 144C160.649 144 146.8 141.253 142 148z"/>
<path style="fill:#034ca1; stroke:none;" d="M147 145C150.435 146.441 154.298 146 158 146L179 146L230 146C239.441 146 249.778 147.196 259 145C255.777 143.844 252.411 144.902 249 144.985C241.342 145.173 233.66 145 226 145L147 145z"/>
<path style="fill:#1a508b; stroke:none;" d="M140 218C141.981 213.28 141 207.08 141 202L141 169C141 163.546 139.676 155.931 143.009 151.214C148.087 144.027 163.354 147 171 147L238 147C247.27 147 257.835 144.727 264 153C264.681 149.623 262.375 147.18 258.995 146.318C252.653 144.7 244.529 146 238 146L171 146C163.572 146 150.816 143.574 144.189 147.318C138.172 150.717 140 160.242 140 166L140 218z"/>
<path style="fill:#a0c6ed; stroke:none;" d="M147 147C150.699 148.552 155.017 148 159 148L180 148L257 148C253.301 146.448 248.983 147 245 147L224 147L147 147z"/>
<path style="fill:#4e82ba; stroke:none;" d="M257.667 147.333C257.222 147.778 258.278 147.722 258.333 147.667C258.778 147.222 257.722 147.278 257.667 147.333z"/>
<path style="fill:#6b98b8; stroke:none;" d="M145 148L146 149L145 148z"/>
<path style="fill:#9fc8e7; stroke:none;" d="M146 148L147 149L146 148z"/>
<path style="fill:#f3ffff; stroke:none;" d="M142 159L144 159C146.054 146.183 163.28 150 173 150L232 150C240.964 150 251.259 151.479 260 150C263.247 162.272 262 175.352 262 188C251.455 184.492 237.171 182.52 231.599 195.375C230.17 198.672 231 203.472 231 207C234.382 206.827 237.673 205.36 241 205.353C245.797 205.342 250.795 210.637 253 204C250.337 203.45 247.598 202.938 245.015 202.072C243.388 201.526 241.839 200.868 240.657 199.57C233.687 191.918 246.29 185.498 252.985 187.653C255.195 188.364 259.327 190.703 258.458 193.658C257.746 196.079 252.656 195.517 251 198C260.314 199.037 263.848 208.468 253.995 212.516C247.57 215.156 243.138 210.577 237 211C241.072 216.958 248.143 213.874 254 217C256.601 215.107 259.092 213.386 262 212L261 217C240.405 219.725 219.037 219 198 219L198 221L239 221C245.557 221 256.636 223.104 261.566 217.721C265.029 213.941 264 207.709 264 203L264 166C264 161.211 265.138 154.225 261.486 150.434C259.002 147.855 255.301 148.018 252 148.001L234 148L164 148C153.974 148 142.156 145.75 142 159z"/>
<path style="fill:#93b8e6; stroke:none;" d="M259 148L260 149L259 148z"/>
<path style="fill:#5780b5; stroke:none;" d="M260 148L261 149L260 148z"/>
<path style="fill:#3e6da1; stroke:none;" d="M143 149L144 150L143 149z"/>
<path style="fill:#99bcdb; stroke:none;" d="M144 149L145 150L144 149z"/>
<path style="fill:#7ca1cf; stroke:none;" d="M261 149L262 150L261 149z"/>
<path style="fill:#8eb2df; stroke:none;" d="M143 150L144 151L143 150z"/>
<path style="fill:#fefefe; stroke:none;" d="M142 221C158.957 221 176.041 221.614 192.985 220.981C197.462 220.814 201.443 219.03 206 219.001C214.999 218.943 224.068 218.079 233 218.079C242.943 218.079 251.182 219.188 261 217L262 212C258.668 213.071 256.474 214.53 254 217C249.058 213.256 242.792 216.524 238 212C236.004 212.475 234.069 212.953 231.996 212.916C221.308 212.722 223 200.517 223 193L220 193L220 187L223 187C224.06 180.352 229.94 180.352 231 187C232.813 187.398 235.014 188.459 236.886 188.27C240.738 187.881 243.912 185.226 248 185.047C253.052 184.826 257.203 186.975 262 188C262 175.888 264.186 161.485 260 150C232.185 151.458 203.868 150 176 150C169.002 150 161.997 149.909 155 150.004C151.821 150.047 148.153 150.09 145.853 152.652C141.089 157.96 142 166.5 142 173L142 221z"/>
<path style="fill:#81aad6; stroke:none;" d="M262 150L263 151L262 150z"/>
<path style="fill:#0b4fa5; stroke:none;" d="M265 150L264 154C267.027 159.454 266 166.925 266 173L266 213C267.981 208.28 267 202.08 267 197L267 166C267 160.754 268.062 154.483 265 150z"/>
<path style="fill:#89b1de; stroke:none;" d="M142 151L143 152L142 151z"/>
<path style="fill:#5d8fc0; stroke:none;" d="M263 151L264 152L263 151z"/>
<path style="fill:#0c55a1; stroke:none;" d="M139 152L139 198C139 206.518 138.018 215.676 140 224C142.039 219.001 140 211.468 140 206L140 170C140 164.381 141.189 157.216 139 152z"/>
<path style="fill:#b2dffb; stroke:none;" d="M263.333 152.667C263.278 152.722 263.222 153.778 263.667 153.333C263.722 153.278 263.778 152.222 263.333 152.667z"/>
<path style="fill:#6994c2; stroke:none;" d="M141 153L142 154L141 153z"/>
<path style="fill:#c9ebff; stroke:none;" d="M141 154L141 221C142.981 216.28 142 210.08 142 205L142 172C142 166.381 143.189 159.217 141 154z"/>
<path style="fill:#7cafdc; stroke:none;" d="M264.333 154.667C264.278 154.722 264.222 155.778 264.667 155.333C264.722 155.278 264.778 154.222 264.333 154.667z"/>
<path style="fill:#00367a; stroke:none;" d="M265.333 154.667C265.278 154.722 265.222 155.778 265.667 155.333C265.722 155.278 265.778 154.222 265.333 154.667z"/>
<path style="fill:#ffffff; stroke:none;" d="M152 157L152 160C154.477 163.262 155.477 168.892 156 173C158.332 173.566 159.31 174.296 161 176C164.277 167.157 169.433 168 178 168L178 171L182 171L182 168L198 168L197 170L208 170C208.052 172.528 208.278 174.582 209 177L214 174C212.752 173.315 212.452 173.251 211 173L213 170L208 166C209.693 166 213.518 165.259 215 166L216 168C217.837 169.225 218.533 168.367 216 169C217.506 169.683 218.315 169.826 220 170C218.55 171.608 217.949 172.064 216 173C218.756 174.077 221.107 173.532 224 173L223 179C226.661 178.743 230.338 178.775 234 179C234.986 177.521 235 177.797 235 176C238.558 177.491 240.934 178.092 242 182C244.568 181.73 248.715 179.572 244 179L252 176C252.061 170.488 253.981 165.542 254 160L240 160L241 156L174 156C166.725 156 159.126 157.455 152 157z"/>
<path style="fill:#a3d0f8; stroke:none;" d="M264 156L264 212C265.875 207.531 265 201.809 265 197L265 170C265 165.464 265.769 160.215 264 156z"/>
<path style="fill:#0d4787; stroke:none;" d="M265 158L265 203C265 210.843 265.277 217.674 257 221C263.386 223.192 265.83 216.202 265.985 211C266.341 199.023 266 186.983 266 175C266 169.65 267.085 162.969 265 158z"/>
<path style="fill:#f5fdff; stroke:none;" d="M165 212L169 213C168.751 201.331 162.019 190.682 161 179C168.963 179.259 172.592 185.462 173 193L177 193C177.326 189.261 179.837 174.588 186.437 180.608C190.462 184.28 191.63 194.833 193 200C197.669 192.256 194.088 179.39 206 179C204.679 177.559 203.273 176.468 201 176.5C199.102 176.526 194.854 177.632 198 179C194.066 181.589 194.075 186.527 194 191L192 191C191.573 181.059 188.973 175 178 177C178 178.797 178.014 178.521 179 180C176.419 181.797 175.882 184.014 175 187C173.248 183.811 172.993 179.496 169 179C166.921 173.829 159.553 173.77 159.062 180.044C158.222 190.792 166.714 201.065 165 212z"/>
<path style="fill:#90b4cf; stroke:none;" d="M211 177C212.769 177.779 214.036 177.912 216 178C214.231 177.221 212.964 177.088 211 177z"/>
<path style="fill:#bed9ff; stroke:none;" d="M209 178L209 183C209.83 180.969 209.83 180.031 209 178z"/>
<path style="fill:#87aac7; stroke:none;" d="M210 178L211 179L210 178z"/>
<path style="fill:#1b517e; stroke:none;" d="M211.603 179.082C209.132 180.872 211.918 184.713 214.397 182.918C216.868 181.128 214.082 177.287 211.603 179.082z"/>
<path style="fill:#5181a5; stroke:none;" d="M215 178L216 179L215 178z"/>
<path style="fill:#aacbe5; stroke:none;" d="M216 178L217 179L216 178z"/>
<path style="fill:#8ba7bc; stroke:none;" d="M161 179L162 180L161 179z"/>
<path style="fill:#527395; stroke:none;" d="M162 179L163 180L162 179z"/>
<path style="fill:#114887; stroke:none;" d="M169 208C171.49 199.799 164.392 189.087 163 181C166.39 183.029 167.381 185.136 168 189L170 189C169.794 186.498 169.709 183.506 168.062 181.438C165.908 178.734 162.523 179.578 162.242 183.059C161.932 186.891 164.279 190.485 165.405 194C166.869 198.567 167.697 203.376 169 208z"/>
<path style="fill:#5e86a8; stroke:none;" d="M166 179L167 180L166 179z"/>
<path style="fill:#97b7cf; stroke:none;" d="M167 179L168 180L167 179z"/>
<path style="fill:#b1cfeb; stroke:none;" d="M180 179L181 180L180 179z"/>
<path style="fill:#395f8f; stroke:none;" d="M181 179C182.506 179.683 183.315 179.826 185 180C183.494 179.317 182.685 179.174 181 179z"/>
<path style="fill:#99b5cb; stroke:none;" d="M185.667 179.333C185.222 179.778 186.278 179.722 186.333 179.667C186.778 179.222 185.722 179.278 185.667 179.333z"/>
<path style="fill:#99b9ce; stroke:none;" d="M199 179L200 180L199 179z"/>
<path style="fill:#476990; stroke:none;" d="M200 179C202.223 180.213 203.648 180.839 205 183C205.683 181.494 205.826 180.685 206 179L200 179z"/>
<path style="fill:#a6c5da; stroke:none;" d="M206.333 179.667C206.278 179.722 206.222 180.778 206.667 180.333C206.722 180.278 206.778 179.222 206.333 179.667z"/>
<path style="fill:#0b5eba; stroke:none;" d="M212 179C212.564 180.752 212.919 181.542 214 183C214.139 180.547 214.071 180.324 212 179z"/>
<path style="fill:#507ea6; stroke:none;" d="M216 179L216 183C216.71 181.24 216.71 180.76 216 179z"/>
<path style="fill:#3f6e8f; stroke:none;" d="M161.333 180.667C161.278 180.722 161.222 181.778 161.667 181.333C161.722 181.278 161.778 180.222 161.333 180.667z"/>
<path style="fill:#9cbad2; stroke:none;" d="M168 180L169 181L168 180z"/>
<path style="fill:#0e549f; stroke:none;" d="M180 180L180 188C181.394 185.073 181.772 182.745 180 180z"/>
<path style="fill:#002e75; stroke:none;" d="M181 180C182.506 180.683 183.315 180.826 185 181C183.494 180.317 182.685 180.174 181 180z"/>
<path style="fill:#004380; stroke:none;" d="M185 180C185.991 182.706 186.713 185.132 187 188C188.326 184.743 187.91 182.056 185 180z"/>
<path style="fill:#82a8ce; stroke:none;" d="M187.333 180.667C187.278 180.722 187.222 181.778 187.667 181.333C187.722 181.278 187.778 180.222 187.333 180.667z"/>
<path style="fill:#4c769d; stroke:none;" d="M199 180L200 181L199 180z"/>
<path style="fill:#084383; stroke:none;" d="M199 183L204 181L204 185C204.779 183.231 204.912 181.964 205 180C201.994 180.221 200.635 180.455 199 183z"/>
<path style="fill:#0454b3; stroke:none;" d="M163 181C163.852 189.506 167.516 200.162 171 208L175 208C174.218 206.416 173.13 205.4 172 204C173.479 204.986 173.203 205 175 205L177 200L173 202C170.96 195.891 169.282 183.465 163 181z"/>
<path style="fill:#8aaec9; stroke:none;" d="M179 181L180 182L179 181z"/>
<path style="fill:#3473d5; stroke:none;" d="M182.667 181.333C182.222 181.778 183.278 181.722 183.333 181.667C183.778 181.222 182.722 181.278 182.667 181.333z"/>
<path style="fill:#1459b6; stroke:none;" d="M175 197C175.159 199.316 174.862 200.028 177 200C175.889 202.904 175.622 204.915 176 208C180.219 201.868 178.584 192.856 186 189L186 195C187.661 194.792 187.54 194.505 188 196C189.393 191.456 187.175 185.54 186 181C181.717 182.14 179.966 186.011 178.5 190.083C177.463 192.965 178.685 196.46 175 197z"/>
<path style="fill:#4e7ba5; stroke:none;" d="M198.333 181.667C198.278 181.722 198.222 182.778 198.667 182.333C198.722 182.278 198.778 181.222 198.333 181.667z"/>
<path style="fill:#0c5bb1; stroke:none;" d="M198 183C198.666 189.762 195.617 194.746 194 201C192.977 199.466 193.195 199.598 192 199C190.647 199.712 190.455 199.815 189 200C189.322 205.804 191.416 206.933 197 207C199.212 198.643 204.686 189.555 204 181C201.828 181.464 200.042 182.105 198 183z"/>
<path style="fill:#c5e9ff; stroke:none;" d="M224 181C226.052 181.874 227.747 181.953 230 182C227.948 181.126 226.253 181.047 224 181z"/>
<path style="fill:#86b4d3; stroke:none;" d="M161.333 182.667C161.278 182.722 161.222 183.778 161.667 183.333C161.722 183.278 161.778 182.222 161.333 182.667z"/>
<path style="fill:#8aadce; stroke:none;" d="M169 182L169 185C169.696 183.446 169.696 183.554 169 182z"/>
<path style="fill:#175087; stroke:none;" d="M179 182L178 190C179.825 187.328 180.232 185.023 179 182z"/>
<path style="fill:#afd2ee; stroke:none;" d="M197 182L197 185C197.696 183.446 197.696 183.554 197 182z"/>
<path style="fill:#92a9d0; stroke:none;" d="M223.333 182.667C223.278 182.722 223.222 183.778 223.667 183.333C223.722 183.278 223.778 182.222 223.333 182.667z"/>
<path style="fill:#1f4a88; stroke:none;" d="M224 182L224 184L226 184L226 182L224 182z"/>
<path style="fill:#073769; stroke:none;" d="M226 182C227.458 183.081 228.248 183.436 230 184C228.686 182.382 228.123 182.307 226 182z"/>
<path style="fill:#689ad2; stroke:none;" d="M230 182L230 187C230.83 184.969 230.83 184.031 230 182z"/>
<path style="fill:#afd6ff; stroke:none;" d="M205 183L205 186C205.696 184.446 205.696 184.554 205 183z"/>
<path style="fill:#afcae4; stroke:none;" d="M210 183L211 184L210 183z"/>
<path style="fill:#6b93be; stroke:none;" d="M215 183L216 184L215 183z"/>
<path style="fill:#0751b0; stroke:none;" d="M222 191C227.074 195.969 223.184 202.975 226.573 208.772C228.979 212.888 233.572 212.056 235 208C227.675 205.825 229 198.308 229 192L234 191C232.415 188.548 228.598 181.256 224.874 184.782C223.344 186.232 222.856 189.111 222 191z"/>
<path style="fill:#e7ffff; stroke:none;" d="M170 184C170.41 189.021 171.356 194.671 174 199C175.225 196.987 175.645 195.342 176 193C172.692 190.864 172.687 186.864 170 184z"/>
<path style="fill:#82b2dc; stroke:none;" d="M188.333 184.667C188.278 184.722 188.222 185.778 188.667 185.333C188.722 185.278 188.778 184.222 188.333 184.667z"/>
<path style="fill:#c2e6ff; stroke:none;" d="M213.667 184.333C213.222 184.778 214.278 184.722 214.333 184.667C214.778 184.222 213.722 184.278 213.667 184.333z"/>
<path style="fill:#a1ccf7; stroke:none;" d="M223 184L223 187C223.696 185.446 223.696 185.554 223 184z"/>
<path style="fill:#91bce1; stroke:none;" d="M178 185L179 186L178 185z"/>
<path style="fill:#4272a3; stroke:none;" d="M197.333 185.667C197.278 185.722 197.222 186.778 197.667 186.333C197.722 186.278 197.778 185.222 197.333 185.667z"/>
<path style="fill:#114e8d; stroke:none;" d="M198 185C196.622 189.308 195.369 193.477 195 198C197.327 194.652 199.174 188.97 198 185z"/>
<path style="fill:#7ea6ca; stroke:none;" d="M162 186L163 187L162 186z"/>
<path style="fill:#225a93; stroke:none;" d="M188.333 186.667C188.278 186.722 188.222 187.778 188.667 187.333C188.722 187.278 188.778 186.222 188.333 186.667z"/>
<path style="fill:#7ca5d3; stroke:none;" d="M204 186L205 187L204 186z"/>
<path style="fill:#b4d7fb; stroke:none;" d="M210 187C212.332 187.985 214.457 187.981 217 188C214.668 187.015 212.543 187.019 210 187z"/>
<path style="fill:#b2dbf9; stroke:none;" d="M220 187C221.248 187.685 221.549 187.749 223 188C221.752 187.315 221.452 187.251 220 187z"/>
<path style="fill:#baccde; stroke:none;" d="M231 187C232.506 187.683 233.315 187.826 235 188C233.494 187.317 232.685 187.174 231 187z"/>
<path style="fill:#ceebff; stroke:none;" d="M243.667 187.333C243.222 187.778 244.278 187.722 244.333 187.667C244.778 187.222 243.722 187.278 243.667 187.333z"/>
<path style="fill:#95b5e6; stroke:none;" d="M245.667 187.333C245.222 187.778 246.278 187.722 246.333 187.667C246.778 187.222 245.722 187.278 245.667 187.333z"/>
<path style="fill:#7496c7; stroke:none;" d="M247 187C248.769 187.779 250.036 187.912 252 188C250.231 187.221 248.964 187.088 247 187z"/>
<path style="fill:#c1dffd; stroke:none;" d="M252.667 187.333C252.222 187.778 253.278 187.722 253.333 187.667C253.778 187.222 252.722 187.278 252.667 187.333z"/>
<path style="fill:#93c4e3; stroke:none;" d="M170 188L171 189L170 188z"/>
<path style="fill:#8bbbe0; stroke:none;" d="M177 188L177 191C177.696 189.446 177.696 189.554 177 188z"/>
<path style="fill:#054792; stroke:none;" d="M188 188C188.199 192.352 189.445 195.962 191 200C192.154 196.098 190.313 191.241 188 188z"/>
<path style="fill:#6490c6; stroke:none;" d="M189.333 188.667C189.278 188.722 189.222 189.778 189.667 189.333C189.722 189.278 189.778 188.222 189.333 188.667z"/>
<path style="fill:#90beea; stroke:none;" d="M196 188L197 189L196 188z"/>
<path style="fill:#cfe2ff; stroke:none;" d="M209 188L209 191C209.696 189.446 209.696 189.554 209 188z"/>
<path style="fill:#134f96; stroke:none;" d="M210 188C210.583 195.388 211 202.565 211 210C213.853 203.201 208.73 193.459 216 189C213.948 188.126 212.253 188.047 210 188z"/>
<path style="fill:#6f91b9; stroke:none;" d="M216 188L216 192C216.71 190.24 216.71 189.76 216 188z"/>
<path style="fill:#395d83; stroke:none;" d="M220 188L220 192L223 189C221.752 188.315 221.452 188.251 220 188z"/>
<path style="fill:#104b8c; stroke:none;" d="M223 188C221.703 189.594 221.465 190.018 221 192C226.359 197.248 221.231 206.334 227 211C225.753 205.544 226.668 194.026 222 191C223.37 189.443 223.67 189.655 223 188z"/>
<path style="fill:#2f567f; stroke:none;" d="M232 188C233.248 188.685 233.549 188.749 235 189C233.752 188.315 233.452 188.251 232 188z"/>
<path style="fill:#9fc7e7; stroke:none;" d="M242 188L243 189L242 188z"/>
<path style="fill:#426ea4; stroke:none;" d="M243 188C244.248 188.685 244.548 188.749 246 189C244.752 188.315 244.452 188.251 243 188z"/>
<path style="fill:#084192; stroke:none;" d="M240 197C242.747 191.81 245.012 189.828 251 189C244.511 186.468 240.205 190.7 240 197z"/>
<path style="fill:#064fa2; stroke:none;" d="M241 194L244 193L241 198L240 194C238.221 199.423 244.387 198.67 248 198C243.075 190.219 253.971 194.224 258 194C256.392 191.427 254.944 190.71 252 190L254 189C249.29 187.57 243.342 189.711 241 194z"/>
<path style="fill:#5382ad; stroke:none;" d="M254 188L255 189L254 188z"/>
<path style="fill:#88b4d6; stroke:none;" d="M255 188L256 189L255 188z"/>
<path style="fill:#79a5c8; stroke:none;" d="M163 189L164 190L163 189z"/>
<path style="fill:#175497; stroke:none;" d="M169 189C169.32 193.017 170.107 196.431 172 200C173.124 196.201 171.453 191.982 169 189z"/>
<path style="fill:#4981a0; stroke:none;" d="M170 189L171 190L170 189z"/>
<path style="fill:#0856aa; stroke:none;" d="M180 199C181.585 196.48 182.328 193.9 183 191L188 199C189.195 198.402 188.977 198.534 190 197C188.526 195.472 188.082 195.16 186 195L186 189C181.158 190.515 180.247 194.257 180 199z"/>
<path style="fill:#4e82b4; stroke:none;" d="M196 189L197 190L196 189z"/>
<path style="fill:#03428c; stroke:none;" d="M202 189C200.558 194.055 198.98 198.803 198 204C200.828 200.424 203.575 193.443 202 189z"/>
<path style="fill:#6290b7; stroke:none;" d="M203 189L204 190L203 189z"/>
<path style="fill:#02418e; stroke:none;" d="M214 189C215.344 194.646 217.452 207.465 212 211C213.506 211.683 214.315 211.826 216 212C216 206.285 218.46 192.898 214 189z"/>
<path style="fill:#163b66; stroke:none;" d="M233 189C233.208 190.661 233.495 190.54 232 191C234.372 192.239 235.416 190.357 233 189z"/>
<path style="fill:#c5e4ff; stroke:none;" d="M235 189L235 192C235.696 190.446 235.696 190.554 235 189z"/>
<path style="fill:#689ec4; stroke:none;" d="M241 189L242 190L241 189z"/>
<path style="fill:#0c3f7c; stroke:none;" d="M252 189C253.866 190.544 258.51 192.291 255 194C256.506 194.683 257.315 194.826 259 195C258.278 190.746 256.15 189.561 252 189z"/>
<path style="fill:#5481ab; stroke:none;" d="M256 189L257 190L256 189z"/>
<path style="fill:#9ec4e2; stroke:none;" d="M257 189L258 190L257 189z"/>
<path style="fill:#c7eaff; stroke:none;" d="M163.333 190.667C163.278 190.722 163.222 191.778 163.667 191.333C163.722 191.278 163.778 190.222 163.333 190.667z"/>
<path style="fill:#b4d4f5; stroke:none;" d="M190 190L190 193C190.696 191.446 190.696 191.554 190 190z"/>
<path style="fill:#1159b5; stroke:none;" d="M212 190L212 209C214.087 204.026 213 197.362 213 192C214.521 197.146 214 202.66 214 208C216.191 202.778 215 195.632 215 190L212 190z"/>
<path style="fill:#649dc7; stroke:none;" d="M240 190L241 191L240 190z"/>
<path style="fill:#5b88b2; stroke:none;" d="M257 190L258 191L257 190z"/>
<path style="fill:#6894c4; stroke:none;" d="M164 191L164 194C164.696 192.446 164.696 192.554 164 191z"/>
<path style="fill:#024483; stroke:none;" d="M177 191L176 198C177.827 195.588 178.15 193.831 177 191z"/>
<path style="fill:#4d94e4; stroke:none;" d="M183 191L184 192L183 191z"/>
<path style="fill:#4977a7; stroke:none;" d="M239 191L239 194C239.696 192.446 239.696 192.554 239 191z"/>
<path style="fill:#8cc0dd; stroke:none;" d="M171 192L172 193L171 192z"/>
<path style="fill:#ecffff; stroke:none;" d="M183 192C181.923 199.291 179.768 210.236 173 214C179.85 216.639 182.579 206.106 182 201C184.458 203.156 185.359 204.79 186 208L188 208C187.545 202.817 185.977 196.278 183 192z"/>
<path style="fill:#759cc7; stroke:none;" d="M195.333 192.667C195.278 192.722 195.222 193.778 195.667 193.333C195.722 193.278 195.778 192.222 195.333 192.667z"/>
<path style="fill:#0c3d6a; stroke:none;" d="M210 192C210 198.261 207.041 211.672 215 213C208.646 206.826 213.047 199.261 210 192z"/>
<path style="fill:#0054b1; stroke:none;" d="M213 192C213 198.408 213.174 204.678 212 211C212.882 210.81 214.382 210.986 214.583 209.667C215.194 205.659 214.935 195.359 213 192z"/>
<path style="fill:#5e88b1; stroke:none;" d="M216 192L216 212C218.087 207.027 218.087 196.973 216 192z"/>
<path style="fill:#86a0b1; stroke:none;" d="M220 192L221 193L220 192z"/>
<path style="fill:#4572a4; stroke:none;" d="M221.667 192.333C221.222 192.778 222.278 192.722 222.333 192.667C222.778 192.222 221.722 192.278 221.667 192.333z"/>
<path style="fill:#0e4386; stroke:none;" d="M229 192L229 205C230.673 201.012 229.984 196.267 231 192L229 192z"/>
<path style="fill:#3774b1; stroke:none;" d="M231 192C232.506 192.683 233.315 192.826 235 193C233.494 192.317 232.685 192.174 231 192z"/>
<path style="fill:#5086bd; stroke:none;" d="M246.667 192.333C246.222 192.778 247.278 192.722 247.333 192.667C247.778 192.222 246.722 192.278 246.667 192.333z"/>
<path style="fill:#85b5e1; stroke:none;" d="M248 192C249.248 192.685 249.549 192.749 251 193C249.752 192.315 249.452 192.251 248 192z"/>
<path style="fill:#3e6795; stroke:none;" d="M259.333 192.667C259.278 192.722 259.222 193.778 259.667 193.333C259.722 193.278 259.778 192.222 259.333 192.667z"/>
<path style="fill:#36699f; stroke:none;" d="M165 193L165 196C165.696 194.446 165.696 194.554 165 193z"/>
<path style="fill:#5488ae; stroke:none;" d="M171 193L172 194L171 193z"/>
<path style="fill:#94c3e2; stroke:none;" d="M176 193L177 194L176 193z"/>
<path style="fill:#8ec6fc; stroke:none;" d="M182 193L182 196C182.696 194.446 182.696 194.554 182 193z"/>
<path style="fill:#6ba1e7; stroke:none;" d="M184 193L185 194L184 193z"/>
<path style="fill:#6690c8; stroke:none;" d="M190 193L191 194L190 193z"/>
<path style="fill:#7197c0; stroke:none;" d="M202 193L203 194L202 193z"/>
<path style="fill:#99b9ea; stroke:none;" d="M223 193L223 208C224.74 203.852 224.74 197.148 223 193z"/>
<path style="fill:#6ea7de; stroke:none;" d="M230 193L230 196C230.696 194.446 230.696 194.554 230 193z"/>
<path style="fill:#b3e2ff; stroke:none;" d="M231.667 193.333C231.222 193.778 232.278 193.722 232.333 193.667C232.778 193.222 231.722 193.278 231.667 193.333z"/>
<path style="fill:#b1d4ff; stroke:none;" d="M238 193L238 197C238.71 195.24 238.71 194.759 238 193z"/>
<path style="fill:#155db0; stroke:none;" d="M242 193C241.438 194.801 241.176 196.122 241 198C242.314 196.388 243.187 194.915 244 193L242 193z"/>
<path style="fill:#609be1; stroke:none;" d="M245 193L245 196C245.696 194.446 245.696 194.554 245 193z"/>
<path style="fill:#e3ffff; stroke:none;" d="M246 193C247.213 197.144 250.365 196.874 253 194C250.582 193.278 248.528 193.052 246 193z"/>
<path style="fill:#739fdf; stroke:none;" d="M252 193L253 194L252 193z"/>
<path style="fill:#c0deff; stroke:none;" d="M164.333 194.667C164.278 194.722 164.222 195.778 164.667 195.333C164.722 195.278 164.778 194.222 164.333 194.667z"/>
<path style="fill:#5a88ad; stroke:none;" d="M176 194L177 195L176 194z"/>
<path style="fill:#89addb; stroke:none;" d="M253 194L254 195L253 194z"/>
<path style="fill:#91afce; stroke:none;" d="M259 194L260 195L259 194z"/>
<path style="fill:#9ec4ef; stroke:none;" d="M191 195L192 196L191 195z"/>
<path style="fill:#87a8cb; stroke:none;" d="M255.667 195.333C255.222 195.778 256.278 195.722 256.333 195.667C256.778 195.222 255.722 195.278 255.667 195.333z"/>
<path style="fill:#b3ceeb; stroke:none;" d="M257.667 195.333C257.222 195.778 258.278 195.722 258.333 195.667C258.778 195.222 257.722 195.278 257.667 195.333z"/>
<path style="fill:#729dc7; stroke:none;" d="M165 196L166 197L165 196z"/>
<path style="fill:#93c0e3; stroke:none;" d="M172 196L173 197L172 196z"/>
<path style="fill:#a1c5e1; stroke:none;" d="M175 196L176 197L175 196z"/>
<path style="fill:#5f90bf; stroke:none;" d="M181 196L181 199C181.696 197.446 181.696 197.554 181 196z"/>
<path style="fill:#5584b4; stroke:none;" d="M185 196L186 197L185 196z"/>
<path style="fill:#064789; stroke:none;" d="M186 196C186.447 201.126 187.374 208.172 192 211C190.334 206.068 189.11 200.174 186 196z"/>
<path style="fill:#5484b5; stroke:none;" d="M191 196L192 197L191 196z"/>
<path style="fill:#5a90bb; stroke:none;" d="M201 196L202 197L201 196z"/>
<path style="fill:#568db1; stroke:none;" d="M230 196L230 201C230.83 198.969 230.83 198.031 230 196z"/>
<path style="fill:#5ea0c9; stroke:none;" d="M246 196L247 197L246 196z"/>
<path style="fill:#bdecf7; stroke:none;" d="M247.667 196.333C247.222 196.778 248.278 196.722 248.333 196.667C248.778 196.222 247.722 196.278 247.667 196.333z"/>
<path style="fill:#b7dcf2; stroke:none;" d="M185.333 197.667C185.278 197.722 185.222 198.778 185.667 198.333C185.722 198.278 185.778 197.222 185.333 197.667z"/>
<path style="fill:#125dbe; stroke:none;" d="M189 197L188 201L191 201C190.489 199.048 190.267 198.543 189 197z"/>
<path style="fill:#95d0fb; stroke:none;" d="M192.333 197.667C192.278 197.722 192.222 198.778 192.667 198.333C192.722 198.278 192.778 197.222 192.333 197.667z"/>
<path style="fill:#72a7d9; stroke:none;" d="M194 197L195 198L194 197z"/>
<path style="fill:#b8e4ff; stroke:none;" d="M201.333 197.667C201.278 197.722 201.222 198.778 201.667 198.333C201.722 198.278 201.778 197.222 201.333 197.667z"/>
<path style="fill:#4a80a2; stroke:none;" d="M248 197L249 198L248 197z"/>
<path style="fill:#a3c4e4; stroke:none;" d="M249.667 197.333C249.222 197.778 250.278 197.722 250.333 197.667C250.778 197.222 249.722 197.278 249.667 197.333z"/>
<path style="fill:#6493c1; stroke:none;" d="M166.333 198.667C166.278 198.722 166.222 199.778 166.667 199.333C166.722 199.278 166.778 198.222 166.333 198.667z"/>
<path style="fill:#4e80b3; stroke:none;" d="M200.333 198.667C200.278 198.722 200.222 199.778 200.667 199.333C200.722 199.278 200.778 198.222 200.333 198.667z"/>
<path style="fill:#628aae; stroke:none;" d="M239 198L240 199L239 198z"/>
<path style="fill:#1d5ab5; stroke:none;" d="M243 198C245.204 200.764 248.584 201.419 252 202C251.35 200.7 251.853 201 250 201C251.743 199.889 252.119 199.73 253 198C249.487 198.764 246.538 198.438 243 198z"/>
<path style="fill:#003e87; stroke:none;" d="M247 198C248.769 198.779 250.036 198.912 252 199C250.231 198.221 248.964 198.088 247 198z"/>
<path style="fill:#618dbc; stroke:none;" d="M253 198L254 199L253 198z"/>
<path style="fill:#b9e2fb; stroke:none;" d="M254.667 198.333C254.222 198.778 255.278 198.722 255.333 198.667C255.778 198.222 254.722 198.278 254.667 198.333z"/>
<path style="fill:#baf6ff; stroke:none;" d="M173.667 199.333C173.222 199.778 174.278 199.722 174.333 199.667C174.778 199.222 173.722 199.278 173.667 199.333z"/>
<path style="fill:#16569b; stroke:none;" d="M179 199C178.356 201.106 178.094 202.795 178 205C179.654 202.823 179.994 201.575 179 199z"/>
<path style="fill:#6c9acd; stroke:none;" d="M180 199L180 202C180.696 200.446 180.696 200.554 180 199z"/>
<path style="fill:#5786b9; stroke:none;" d="M240 199L241 200L240 199z"/>
<path style="fill:#004295; stroke:none;" d="M241 199C244.391 202.218 248.427 202.801 253 203C249.305 200.927 245.139 199.865 241 199z"/>
<path style="fill:#0b477f; stroke:none;" d="M253 199C255.164 201.003 257.401 202.607 260 204C258.302 200.758 256.573 199.726 253 199z"/>
<path style="fill:#55809f; stroke:none;" d="M256 199L257 200L256 199z"/>
<path style="fill:#a0c2d8; stroke:none;" d="M257 199L258 200L257 199z"/>
<path style="fill:#a5ccec; stroke:none;" d="M166.333 200.667C166.278 200.722 166.222 201.778 166.667 201.333C166.722 201.278 166.778 200.222 166.333 200.667z"/>
<path style="fill:#85c9ff; stroke:none;" d="M173.667 200.333C173.222 200.778 174.278 200.722 174.333 200.667C174.778 200.222 173.722 200.278 173.667 200.333z"/>
<path style="fill:#7cadd2; stroke:none;" d="M186 200L187 201L186 200z"/>
<path style="fill:#80c6ff; stroke:none;" d="M193 200L194 201L193 200z"/>
<path style="fill:#90b6df; stroke:none;" d="M200.333 200.667C200.278 200.722 200.222 201.778 200.667 201.333C200.722 201.278 200.778 200.222 200.333 200.667z"/>
<path style="fill:#a3c2e1; stroke:none;" d="M240 200L241 201L240 200z"/>
<path style="fill:#5c86b5; stroke:none;" d="M241 200L242 201L241 200z"/>
<path style="fill:#0155b4; stroke:none;" d="M250 200C252.696 203.444 254.477 206.336 259 207C258.224 201.705 255.065 200.276 250 200z"/>
<path style="fill:#6a98be; stroke:none;" d="M258 200L259 201L258 200z"/>
<path style="fill:#3983cb; stroke:none;" d="M173.667 201.333C173.222 201.778 174.278 201.722 174.333 201.667C174.778 201.222 173.722 201.278 173.667 201.333z"/>
<path style="fill:#74a9c9; stroke:none;" d="M230 201L230 205C230.71 203.24 230.71 202.759 230 201z"/>
<path style="fill:#afd0f5; stroke:none;" d="M242 201L243 202L242 201z"/>
<path style="fill:#6691be; stroke:none;" d="M243 201L244 202L243 201z"/>
<path style="fill:#7aabd4; stroke:none;" d="M259 201L260 202L259 201z"/>
<path style="fill:#447aa6; stroke:none;" d="M167 202L168 203L167 202z"/>
<path style="fill:#80aecf; stroke:none;" d="M246 202L247 203L246 202z"/>
<path style="fill:#4c7fa3; stroke:none;" d="M247 202L248 203L247 202z"/>
<path style="fill:#88aed3; stroke:none;" d="M260 202L260 207C260.83 204.97 260.83 204.03 260 202z"/>
<path style="fill:#78a8cf; stroke:none;" d="M167 203L168 204L167 203z"/>
<path style="fill:#5d93b6; stroke:none;" d="M187 203L188 204L187 203z"/>
<path style="fill:#658dc2; stroke:none;" d="M199 203L200 204L199 203z"/>
<path style="fill:#5e92c5; stroke:none;" d="M250 203C251.248 203.685 251.549 203.749 253 204C251.752 203.315 251.452 203.251 250 203z"/>
<path style="fill:#0658c5; stroke:none;" d="M172 204C172.782 205.584 173.87 206.6 175 208C173.521 207.014 173.797 207 172 207L173 211C175.545 209.365 175.779 208.006 176 205L172 204z"/>
<path style="fill:#7cabcd; stroke:none;" d="M179 204L180 205L179 204z"/>
<path style="fill:#174289; stroke:none;" d="M197 204L196 211L190 211C192.017 212.451 193.504 212.698 196 213C197.325 209.859 198.266 207.248 197 204z"/>
<path style="fill:#38669d; stroke:none;" d="M198 204L198 207C198.696 205.446 198.696 205.554 198 204z"/>
<path style="fill:#bedcff; stroke:none;" d="M199.333 204.667C199.278 204.722 199.222 205.778 199.667 205.333C199.722 205.278 199.778 204.222 199.333 204.667z"/>
<path style="fill:#00306d; stroke:none;" d="M259 204L259 207C259.696 205.446 259.696 205.554 259 204z"/>
<path style="fill:#0b4687; stroke:none;" d="M178 205C175.974 208.089 174.582 209.942 171 211L171 213C175.344 212.322 178.929 209.779 178 205z"/>
<path style="fill:#3068af; stroke:none;" d="M230.333 205.667C230.278 205.722 230.222 206.778 230.667 206.333C230.722 206.278 230.778 205.222 230.333 205.667z"/>
<path style="fill:#85a1ca; stroke:none;" d="M238 208L241 206C238.86 204.882 238.473 205.749 238 208z"/>
<path style="fill:#567da1; stroke:none;" d="M241 205C242.248 205.685 242.548 205.749 244 206C242.752 205.315 242.452 205.251 241 205z"/>
<path style="fill:#a4c6e3; stroke:none;" d="M244 205L245 206L244 205z"/>
<path style="fill:#094790; stroke:none;" d="M253 205C249.69 210.986 244.443 206.174 239 206C239.939 208.637 240.58 209.618 243 211L242 207C246.754 210.212 252.952 211.745 255 205L253 205z"/>
<path style="fill:#4d84ab; stroke:none;" d="M168 206L169 207L168 206z"/>
<path style="fill:#145aa6; stroke:none;" d="M170 206L169 210C170.739 209.938 171.375 210.478 173 211C172.383 208.697 171.743 207.628 170 206z"/>
<path style="fill:#e4ffff; stroke:none;" d="M234 207C234.791 209.232 235.077 210.646 235 213C237.945 211.124 238.365 209.423 238 206L234 207z"/>
<path style="fill:#83aad6; stroke:none;" d="M245 206L246 207L245 206z"/>
<path style="fill:#5384a8; stroke:none;" d="M178 207L179 208L178 207z"/>
<path style="fill:#aad1e5; stroke:none;" d="M188 207L188 210C188.696 208.446 188.696 208.554 188 207z"/>
<path style="fill:#0a53c2; stroke:none;" d="M191 207C191.968 209.964 192.934 210.503 196 211L196 207L191 207z"/>
<path style="fill:#77a1cc; stroke:none;" d="M198 207L199 208L198 207z"/>
<path style="fill:#416fa2; stroke:none;" d="M224 207L224 210C224.696 208.446 224.696 208.554 224 207z"/>
<path style="fill:#5881ac; stroke:none;" d="M231.667 207.333C231.222 207.778 232.278 207.722 232.333 207.667C232.778 207.222 231.722 207.278 231.667 207.333z"/>
<path style="fill:#9cbfd9; stroke:none;" d="M233 207L234 208L233 207z"/>
<path style="fill:#1555a7; stroke:none;" d="M242 207C242.776 209.132 243.13 209.771 245 211C244.224 208.868 243.87 208.229 242 207z"/>
<path style="fill:#87aee3; stroke:none;" d="M246 207L247 208L246 207z"/>
<path style="fill:#82b6e8; stroke:none;" d="M252 207L253 208L252 207z"/>
<path style="fill:#2369b7; stroke:none;" d="M245 210C249.671 211.96 254.122 211.211 257 207C252.818 208.635 249.555 209.947 245 210z"/>
<path style="fill:#084899; stroke:none;" d="M255 212C257.324 210.519 258.581 209.354 260 207C256.873 207.934 255.934 208.873 255 212z"/>
<path style="fill:#a4d3ed; stroke:none;" d="M178 208L179 209L178 208z"/>
<path style="fill:#bcd9fd; stroke:none;" d="M198.333 208.667C198.278 208.722 198.222 209.778 198.667 209.333C198.722 209.278 198.778 208.222 198.333 208.667z"/>
<path style="fill:#4e6897; stroke:none;" d="M239 208L240 209L239 208z"/>
<path style="fill:#4986bd; stroke:none;" d="M246 208C248.052 208.874 249.747 208.953 252 209C249.948 208.126 248.253 208.047 246 208z"/>
<path style="fill:#6e94b8; stroke:none;" d="M259 208L260 209L259 208z"/>
<path style="fill:#033b74; stroke:none;" d="M170.333 209.667C170.278 209.722 170.222 210.778 170.667 210.333C170.722 210.278 170.778 209.222 170.333 209.667z"/>
<path style="fill:#4f77a4; stroke:none;" d="M197.333 209.667C197.278 209.722 197.222 210.778 197.667 210.333C197.722 210.278 197.778 209.222 197.333 209.667z"/>
<path style="fill:#93b7d9; stroke:none;" d="M235 209L235 212C235.696 210.446 235.696 210.554 235 209z"/>
<path style="fill:#8ea7ca; stroke:none;" d="M239 209L240 210L239 209z"/>
<path style="fill:#b3d0eb; stroke:none;" d="M259 209L260 210L259 209z"/>
<path style="fill:#9ec3e8; stroke:none;" d="M169 210C169.406 212.092 169.217 212.02 171 213C170.309 211.612 170.015 211.139 169 210z"/>
<path style="fill:#5f8cb5; stroke:none;" d="M177 210L178 211L177 210z"/>
<path style="fill:#84a5d1; stroke:none;" d="M189 210L190 211L189 210z"/>
<path style="fill:#709bc2; stroke:none;" d="M240 210L241 211L240 210z"/>
<path style="fill:#5b8cbd; stroke:none;" d="M257 210L258 211L257 210z"/>
<path style="fill:#99bdde; stroke:none;" d="M258 210L259 211L258 210z"/>
<path style="fill:#376796; stroke:none;" d="M170 211L171 212L170 211z"/>
<path style="fill:#4d79ab; stroke:none;" d="M176 211L177 212L176 211z"/>
<path style="fill:#a7c8ec; stroke:none;" d="M177 211L178 212L177 211z"/>
<path style="fill:#cbe1fa; stroke:none;" d="M189.333 211.667C189.278 211.722 189.222 212.778 189.667 212.333C189.722 212.278 189.778 211.222 189.333 211.667z"/>
<path style="fill:#91afd3; stroke:none;" d="M197 211L198 212L197 211z"/>
<path style="fill:#93c1d3; stroke:none;" d="M225 211L226 212L225 211z"/>
<path style="fill:#5b8cb6; stroke:none;" d="M226 211L227 212L226 211z"/>
<path style="fill:#325d93; stroke:none;" d="M227 211C227.98 212.783 227.908 212.594 230 213C228.777 211.805 228.58 211.684 227 211z"/>
<path style="fill:#203f6c; stroke:none;" d="M230 212C232.3 212.916 233.377 212.879 235 211L230 212z"/>
<path style="fill:#5989b7; stroke:none;" d="M241.667 211.333C241.222 211.778 242.278 211.722 242.333 211.667C242.778 211.222 241.722 211.278 241.667 211.333z"/>
<path style="fill:#194a8d; stroke:none;" d="M243 211C246.36 213.296 250.026 212.997 254 213C250.64 210.704 246.974 211.003 243 211z"/>
<path style="fill:#002968; stroke:none;" d="M252 211C253.248 211.685 253.548 211.749 255 212C253.752 211.315 253.452 211.251 252 211z"/>
<path style="fill:#6894c2; stroke:none;" d="M256 211L257 212L256 211z"/>
<path style="fill:#5883af; stroke:none;" d="M175 212L176 213L175 212z"/>
<path style="fill:#aaceec; stroke:none;" d="M176 212L177 213L176 212z"/>
<path style="fill:#7490ba; stroke:none;" d="M190 212L191 213L190 212z"/>
<path style="fill:#08345d; stroke:none;" d="M193.667 212.333C193.222 212.778 194.278 212.722 194.333 212.667C194.778 212.222 193.722 212.278 193.667 212.333z"/>
<path style="fill:#7496b1; stroke:none;" d="M196 212L197 213L196 212z"/>
<path style="fill:#627c88; stroke:none;" d="M210 212L211 213L210 212z"/>
<path style="fill:#456883; stroke:none;" d="M215 212L216 213L215 212z"/>
<path style="fill:#aabfd6; stroke:none;" d="M216 212L217 213L216 212z"/>
<path style="fill:#6089bf; stroke:none;" d="M243.667 212.333C243.222 212.778 244.278 212.722 244.333 212.667C244.778 212.222 243.722 212.278 243.667 212.333z"/>
<path style="fill:#7397c3; stroke:none;" d="M254 212L255 213L254 212z"/>
<path style="fill:#618fc4; stroke:none;" d="M264 212L264 215C264.696 213.446 264.696 213.554 264 212z"/>
<path style="fill:#b1d4ee; stroke:none;" d="M171 213C172.506 213.683 173.315 213.826 175 214C173.494 213.317 172.685 213.174 171 213z"/>
<path style="fill:#a5caef; stroke:none;" d="M246 213C248.052 213.874 249.747 213.953 252 214C249.948 213.126 248.253 213.047 246 213z"/>
<path style="fill:#a2cbe7; stroke:none;" d="M263 215L264 216L263 215z"/>
<path style="fill:#6390b7; stroke:none;" d="M263 216L264 217L263 216z"/>
<path style="fill:#94bce0; stroke:none;" d="M262 217L263 218L262 217z"/>
<path style="fill:#98c3ee; stroke:none;" d="M261 218L262 219L261 218z"/>
<path style="fill:#4475ae; stroke:none;" d="M262 218L263 219L262 218z"/>
<path style="fill:#7cabd9; stroke:none;" d="M260 219L261 220L260 219z"/>
<path style="fill:#4074ae; stroke:none;" d="M261 219L262 220L261 219z"/>
<path style="fill:#76a9da; stroke:none;" d="M257.667 220.333C257.222 220.778 258.278 220.722 258.333 220.667C258.778 220.222 257.722 220.278 257.667 220.333z"/>
<path style="fill:#6094c9; stroke:none;" d="M141 221C142.248 221.685 142.548 221.749 144 222C142.752 221.315 142.452 221.251 141 221z"/>
<path style="fill:#97b9de; stroke:none;" d="M144 221C151.606 225.17 161.26 231.594 170 232C170.504 235.809 174.591 235.882 178 236L179 243L184 242C182.815 237.024 184.969 227.579 181.821 223.603C179.832 221.092 174.793 222 172 222C162.583 221.999 153.364 221.402 144 221z"/>
<path style="fill:#a1b3c7; stroke:none;" d="M149 221C152.699 222.552 157.017 222 161 222L184 222C180.301 220.448 175.983 221 172 221L149 221z"/>
<path style="fill:#629cdf; stroke:none;" d="M184 221L184 243C186.219 237.713 186.219 226.287 184 221z"/>
<path style="fill:#0a51a0; stroke:none;" d="M185 221L185 235C186.191 232.161 185.383 228.935 186.603 226.148C188.319 222.229 192.125 223.122 194 226C200.264 223.769 204.802 225.356 211 227C210.218 225.416 209.13 224.4 208 223L259 223C253.799 220.029 244.014 222 238 222L205 222C198.341 222 191.513 222.551 185 221z"/>
<path style="fill:#073b6b; stroke:none;" d="M186 221C192.194 223.599 201.314 222 208 222L256 222C249.806 219.401 240.686 221 234 221L186 221z"/>
<path style="fill:#0751a6; stroke:none;" d="M142 222C146.63 230.911 160.503 231.35 165 240C171.327 239.682 175.906 244.694 182 246C176.559 240.341 169.009 237.348 162.285 233.499C155.652 229.703 149.264 224.452 142 222z"/>
<path style="fill:#94bdeb; stroke:none;" d="M144 222C146.358 224.573 149.878 225.531 153 227.333C157.742 230.072 160.672 232.575 166 233.833C168.705 234.472 172.909 236.273 171 239L179 242L178 236C174.305 236 171.737 235.19 169 233L170 232C160.469 231.135 153.591 222.869 144 222z"/>
<path style="fill:#98c1fd; stroke:none;" d="M182 222C183.174 228.322 183 234.592 183 241C184.803 236.702 185.686 225.221 182 222z"/>
<path style="fill:#004fa9; stroke:none;" d="M280 238L286 235C285.528 233.584 285.186 233.186 284 232L288 232C283.738 229.87 281.402 229.209 281 224C275.641 223.02 267.583 224.18 272.457 231.687C274.204 234.379 277.888 235.443 280 238z"/>
<path style="fill:#518ad2; stroke:none;" d="M146.667 224.333C146.222 224.778 147.278 224.722 147.333 224.667C147.778 224.222 146.722 224.278 146.667 224.333z"/>
<path style="fill:#09467c; stroke:none;" d="M197 224C198.769 224.779 200.036 224.912 202 225C200.231 224.221 198.964 224.088 197 224z"/>
<path style="fill:#6aa1d0; stroke:none;" d="M274 224C275.248 224.685 275.548 224.749 277 225C275.752 224.315 275.452 224.251 274 224z"/>
<path style="fill:#104c8e; stroke:none;" d="M309 226C311.232 225.637 312.768 225.637 315 226C313.053 223.769 310.947 223.769 309 226z"/>
<path style="fill:#044987; stroke:none;" d="M190 240C191.944 233.93 191.424 230.482 197 226C189.516 224.991 188.454 234.755 190 240z"/>
<path style="fill:#3d7bb2; stroke:none;" d="M197 225C198.248 225.685 198.549 225.749 200 226C198.752 225.315 198.452 225.251 197 225z"/>
<path style="fill:#a4bfe7; stroke:none;" d="M200 225C201.769 225.779 203.036 225.912 205 226C203.231 225.221 201.964 225.088 200 225z"/>
<path style="fill:#4a80b8; stroke:none;" d="M205.667 225.333C205.222 225.778 206.278 225.722 206.333 225.667C206.778 225.222 205.722 225.278 205.667 225.333z"/>
<path style="fill:#8ac3f7; stroke:none;" d="M273 225L274 226L273 225z"/>
<path style="fill:#dcfeff; stroke:none;" d="M273 230L278 230L278 225C274.526 225.577 273.577 226.526 273 230z"/>
<path style="fill:#7dafe9; stroke:none;" d="M278 225L278 229C278.71 227.24 278.71 226.759 278 225z"/>
<path style="fill:#4e82b3; stroke:none;" d="M310 225C311.506 225.683 312.315 225.826 314 226C312.494 225.317 311.685 225.174 310 225z"/>
<path style="fill:#68a3e1; stroke:none;" d="M150.667 226.333C150.222 226.778 151.278 226.722 151.333 226.667C151.778 226.222 150.722 226.278 150.667 226.333z"/>
<path style="fill:#5d86b9; stroke:none;" d="M196 226L197 227L196 226z"/>
<path style="fill:#c8eaff; stroke:none;" d="M197.667 226.333C197.222 226.778 198.278 226.722 198.333 226.667C198.778 226.222 197.722 226.278 197.667 226.333z"/>
<path style="fill:#edffff; stroke:none;" d="M191 251C192.513 260.691 209.451 263.867 213.397 253.945C218.453 241.23 202.238 243.45 197.662 236.726C193.979 231.314 202.219 229.007 206 230.815C208.853 232.179 210.83 233.522 214 234C211.375 224.848 194.103 222.045 191.817 233.005C189.426 244.468 204.102 241.579 208.288 248.224C211.533 253.375 203.956 256.509 200 254.825C196.736 253.435 194.6 251.545 191 251z"/>
<path style="fill:#8fb8de; stroke:none;" d="M208 226L209 227L208 226z"/>
<path style="fill:#6593d5; stroke:none;" d="M272 226L272 229C272.696 227.446 272.696 227.554 272 226z"/>
<path style="fill:#0352c7; stroke:none;" d="M282 226C282.497 229.066 283.036 230.032 286 231C285.492 227.987 284.841 227.127 282 226z"/>
<path style="fill:#c7ebff; stroke:none;" d="M310 226L310 231C310.683 229.494 310.826 228.685 311 227L314 227L314 259C315.552 255.301 315 250.983 315 247L315 226L310 226z"/>
<path style="fill:#1157a6; stroke:none;" d="M315 226C316.866 233.839 318.092 248.319 315.111 255.946C314.211 258.248 312.299 259.953 311 262C320.516 260.447 317 243.324 317 236C317 232.484 317.786 228.435 315 226z"/>
<path style="fill:#73abe5; stroke:none;" d="M152.667 227.333C152.222 227.778 153.278 227.722 153.333 227.667C153.778 227.222 152.722 227.278 152.667 227.333z"/>
<path style="fill:#648fc5; stroke:none;" d="M194 227L195 228L194 227z"/>
<path style="fill:#90bef1; stroke:none;" d="M209.667 227.333C209.222 227.778 210.278 227.722 210.333 227.667C210.778 227.222 209.722 227.278 209.667 227.333z"/>
<path style="fill:#004e93; stroke:none;" d="M212 227C212.81 229.222 213.739 230.99 215 233C215.698 230.03 214.511 228.579 212 227z"/>
<path style="fill:#0a4e96; stroke:none;" d="M308 227L308 250C308 254.661 307.515 258.587 311 262C308.616 254.359 309 246.946 309 239C309 235.017 309.552 230.699 308 227z"/>
<path style="fill:#3b72a1; stroke:none;" d="M309 227L309 259C311.599 252.806 310 243.686 310 237C310 233.581 310.328 230.166 309 227z"/>
<path style="fill:#f3fbfd; stroke:none;" d="M311 227L311 259L314 259L314 227L311 227z"/>
<path style="fill:#235697; stroke:none;" d="M315 227L315 256C316.328 252.834 316 249.419 316 246C316 240.113 317.292 232.462 315 227z"/>
<path style="fill:#538dcd; stroke:none;" d="M154 228L155 229L154 228z"/>
<path style="fill:#6a9acb; stroke:none;" d="M193 228L194 229L193 228z"/>
<path style="fill:#8bb5de; stroke:none;" d="M211 228L212 229L211 228z"/>
<path style="fill:#5b91d1; stroke:none;" d="M155.667 229.333C155.222 229.778 156.278 229.722 156.333 229.667C156.778 229.222 155.722 229.278 155.667 229.333z"/>
<path style="fill:#548cb4; stroke:none;" d="M192 229L193 230L192 229z"/>
<path style="fill:#caecff; stroke:none;" d="M200 229C201.506 229.683 202.315 229.826 204 230C202.494 229.317 201.685 229.174 200 229z"/>
<path style="fill:#90bcdf; stroke:none;" d="M212 229L213 230L212 229z"/>
<path style="fill:#4c8abc; stroke:none;" d="M278 229L279 230L278 229z"/>
<path style="fill:#aec7f2; stroke:none;" d="M198 230L199 231L198 230z"/>
<path style="fill:#759aca; stroke:none;" d="M199 230L200 231L199 230z"/>
<path style="fill:#094b89; stroke:none;" d="M197 232C201.309 233.053 204.781 232.882 209 235C206.261 229.781 201.986 229.615 197 232z"/>
<path style="fill:#77a3d3; stroke:none;" d="M205 230L206 231L205 230z"/>
<path style="fill:#a7d2fc; stroke:none;" d="M206 230L207 231L206 230z"/>
<path style="fill:#6799bb; stroke:none;" d="M213 230L214 231L213 230z"/>
<path style="fill:#467fb1; stroke:none;" d="M274 230C275.248 230.685 275.548 230.749 277 231C275.752 230.315 275.452 230.251 274 230z"/>
<path style="fill:#4a86cc; stroke:none;" d="M158.667 231.333C158.222 231.778 159.278 231.722 159.333 231.667C159.778 231.222 158.722 231.278 158.667 231.333z"/>
<path style="fill:#bae4ff; stroke:none;" d="M191 231L191 234C191.696 232.446 191.696 232.554 191 231z"/>
<path style="fill:#889fc5; stroke:none;" d="M197 231L198 232L197 231z"/>
<path style="fill:#7fb0db; stroke:none;" d="M207 231L208 232L207 231z"/>
<path style="fill:#0f539f; stroke:none;" d="M252 235C255.311 233.158 258.259 233.013 262 233C258.719 230.566 252.991 230.35 252 235z"/>
<path style="fill:#defcff; stroke:none;" d="M310 231L310 259C312.604 252.793 312.604 237.207 310 231z"/>
<path style="fill:#a1b8db; stroke:none;" d="M196 232L197 233L196 232z"/>
<path style="fill:#8cb2d1; stroke:none;" d="M208 232L209 233L208 232z"/>
<path style="fill:#4d85bf; stroke:none;" d="M214.333 232.667C214.278 232.722 214.222 233.778 214.667 233.333C214.722 233.278 214.778 232.222 214.333 232.667z"/>
<path style="fill:#0c4c93; stroke:none;" d="M217 247C213.357 239.283 205.454 240.734 200 235C198.805 236.223 198.684 236.42 198 238C206.122 241.5 213.849 242.165 216 252C218.254 248.262 218.22 243.684 220.703 240.005C226.82 230.94 236.151 233.508 242 241C243.303 233.077 232.667 231.747 227.001 232.968C219.832 234.512 217.549 240.327 217 247z"/>
<path style="fill:#154a7a; stroke:none;" d="M291 233C293.052 233.874 294.747 233.953 297 234C294.729 232.32 293.758 232.343 291 233z"/>
<path style="fill:#0854a8; stroke:none;" d="M307 232L307 236C305.183 234.843 305.165 234.855 303 235C306.453 243.136 305.007 251.629 307 260C309.604 253.793 309.604 238.207 307 232z"/>
<path style="fill:#2a6ab1; stroke:none;" d="M161.667 233.333C161.222 233.778 162.278 233.722 162.333 233.667C162.778 233.222 161.722 233.278 161.667 233.333z"/>
<path style="fill:#93c3ff; stroke:none;" d="M165 233C166.959 236.14 169.468 237.105 173 238C170.617 235.549 168.207 234.178 165 233z"/>
<path style="fill:#5785c4; stroke:none;" d="M190 233L190 237C190.71 235.24 190.71 234.76 190 233z"/>
<path style="fill:#214775; stroke:none;" d="M196 233L196 236C196.696 234.446 196.696 234.554 196 233z"/>
<path style="fill:#003073; stroke:none;" d="M197 233L197 237C197.71 235.24 197.71 234.76 197 233z"/>
<path style="fill:#9abfe5; stroke:none;" d="M209 233L210 234L209 233z"/>
<path style="fill:#1558b4; stroke:none;" d="M247 237L252 234C249.092 233.199 247.958 234.251 247 237z"/>
<path style="fill:#12387a; stroke:none;" d="M253 233C256.163 234.327 259.586 234 263 234C259.837 232.673 256.414 233 253 233z"/>
<path style="fill:#00459a; stroke:none;" d="M282 236L283 239L290 234C286.954 232.944 284.794 234.655 282 236z"/>
<path style="fill:#094892; stroke:none;" d="M297 233C300.292 235.706 302.819 237.804 304 242C305.932 236.829 301.751 233.736 297 233z"/>
<path style="fill:#4882cb; stroke:none;" d="M164 234L165 235L164 234z"/>
<path style="fill:#2971c6; stroke:none;" d="M198.333 234.667C198.278 234.722 198.222 235.778 198.667 235.333C198.722 235.278 198.778 234.222 198.333 234.667z"/>
<path style="fill:#3d6ead; stroke:none;" d="M209 234L210 235L209 234z"/>
<path style="fill:#aad3ff; stroke:none;" d="M210 234C211.506 234.683 212.315 234.826 214 235C212.494 234.317 211.685 234.174 210 234z"/>
<path style="fill:#4273ab; stroke:none;" d="M225 234L226 235L225 234z"/>
<path style="fill:#76a1cf; stroke:none;" d="M226 234L227 235L226 234z"/>
<path style="fill:#eaffff; stroke:none;" d="M227.039 234.745C212.686 240.234 220.1 264.731 234.985 258.709C248.013 253.438 241.138 229.354 227.039 234.745z"/>
<path style="fill:#8bb4e8; stroke:none;" d="M233 234C234.248 234.685 234.548 234.749 236 235C234.752 234.315 234.452 234.251 233 234z"/>
<path style="fill:#063f8c; stroke:none;" d="M247 239C249.136 237.451 250.451 236.136 252 234C249.079 235.103 248.103 236.079 247 239z"/>
<path style="fill:#6096c4; stroke:none;" d="M253 234L254 235L253 234z"/>
<path style="fill:#e9ffff; stroke:none;" d="M268 252C264.505 252.527 260.466 256.038 257.019 255.249C249.717 253.578 249.674 242.058 256.044 239.238C259.836 237.559 264.184 241.425 268 242C265.04 231.708 249.244 231.97 247.228 243.001C246.41 247.477 246.866 253.292 250.279 256.606C256.154 262.312 265.816 259.592 268 252z"/>
<path style="fill:#acd1f6; stroke:none;" d="M259 234C260.248 234.685 260.548 234.749 262 235C260.752 234.315 260.452 234.251 259 234z"/>
<path style="fill:#6397ca; stroke:none;" d="M262 234L263 235L262 234z"/>
<path style="fill:#80b5e4; stroke:none;" d="M273 234C274.769 234.779 276.036 234.912 278 235C276.231 234.221 274.964 234.088 273 234z"/>
<path style="fill:#80acd3; stroke:none;" d="M289.667 234.333C289.222 234.778 290.278 234.722 290.333 234.667C290.778 234.222 289.722 234.278 289.667 234.333z"/>
<path style="fill:#c5ecfb; stroke:none;" d="M291 234C292.248 234.685 292.548 234.749 294 235C292.752 234.315 292.452 234.251 291 234z"/>
<path style="fill:#e8ffff; stroke:none;" d="M285 240C287.102 239.791 288.952 239.35 291.004 238.866C293.384 238.303 300.89 239.075 297.288 243.263C293.802 247.316 286.313 244.019 283.909 250.109C280.269 259.329 292.554 261.331 298 257C299.846 258.254 301.914 259.366 303.262 256.677C304.377 254.453 303.996 251.405 304 249C304.014 240.152 300.831 231.749 290.019 235.228C287.269 236.112 286.231 237.558 285 240z"/>
<path style="fill:#89b3e0; stroke:none;" d="M297.667 234.333C297.222 234.778 298.278 234.722 298.333 234.667C298.778 234.222 297.722 234.278 297.667 234.333z"/>
<path style="fill:#5586bf; stroke:none;" d="M299 234L300 235L299 234z"/>
<path style="fill:#5891d8; stroke:none;" d="M165.667 235.333C165.222 235.778 166.278 235.722 166.333 235.667C166.778 235.222 165.722 235.278 165.667 235.333z"/>
<path style="fill:#2b5ca0; stroke:none;" d="M209 235C210.769 235.779 212.036 235.912 214 236C212.231 235.221 210.964 235.088 209 235z"/>
<path style="fill:#7cabd7; stroke:none;" d="M224 235L225 236L224 235z"/>
<path style="fill:#8fbbec; stroke:none;" d="M236 235L237 236L236 235z"/>
<path style="fill:#497db5; stroke:none;" d="M237 235L238 236L237 235z"/>
<path style="fill:#9ac4f1; stroke:none;" d="M251.667 235.333C251.222 235.778 252.278 235.722 252.333 235.667C252.778 235.222 251.722 235.278 251.667 235.333z"/>
<path style="fill:#a5d1fa; stroke:none;" d="M263 235L264 236L263 235z"/>
<path style="fill:#689cd0; stroke:none;" d="M264 235L265 236L264 235z"/>
<path style="fill:#105097; stroke:none;" d="M267 235C267.105 238.025 267.731 238.976 270 241L269 235L267 235z"/>
<path style="fill:#255590; stroke:none;" d="M272 235L272 259C274.349 253.403 274.349 240.597 272 235z"/>
<path style="fill:#c6e5ff; stroke:none;" d="M273 235L273 259C275.349 253.403 275.349 240.597 273 235z"/>
<path style="fill:#f1ffff; stroke:none;" d="M274 235L274 259L278 259L278 235L274 235z"/>
<path style="fill:#4276a7; stroke:none;" d="M278 235L278 259C280.349 253.403 280.349 240.597 278 235z"/>
<path style="fill:#71a3dc; stroke:none;" d="M287 235L288 236L287 235z"/>
<path style="fill:#89b7ea; stroke:none;" d="M299.667 235.333C299.222 235.778 300.278 235.722 300.333 235.667C300.778 235.222 299.722 235.278 299.667 235.333z"/>
<path style="fill:#bddeff; stroke:none;" d="M191 236L191 239C191.696 237.446 191.696 237.554 191 236z"/>
<path style="fill:#53819e; stroke:none;" d="M196 236L197 237L196 236z"/>
<path style="fill:#003c8f; stroke:none;" d="M211.667 236.333C211.222 236.778 212.278 236.722 212.333 236.667C212.778 236.222 211.722 236.278 211.667 236.333z"/>
<path style="fill:#92bce5; stroke:none;" d="M223 236L224 237L223 236z"/>
<path style="fill:#5f8aad; stroke:none;" d="M238 236L239 237L238 236z"/>
<path style="fill:#789ece; stroke:none;" d="M250 236L251 237L250 236z"/>
<path style="fill:#78a5cf; stroke:none;" d="M265 236L266 237L265 236z"/>
<path style="fill:#0c4c92; stroke:none;" d="M279 236C279 242.863 282.565 260.739 272 259C274.104 261.409 276.906 260.99 280 261C280 253.503 281.907 242.928 279 236z"/>
<path style="fill:#83b3e6; stroke:none;" d="M286 236L287 237L286 236z"/>
<path style="fill:#94c0e7; stroke:none;" d="M301 236L302 237L301 236z"/>
<path style="fill:#67a2e4; stroke:none;" d="M169.667 237.333C169.222 237.778 170.278 237.722 170.333 237.667C170.778 237.222 169.722 237.278 169.667 237.333z"/>
<path style="fill:#6e9bbe; stroke:none;" d="M197 237L198 238L197 237z"/>
<path style="fill:#9dbfea; stroke:none;" d="M222 237L223 238L222 237z"/>
<path style="fill:#7ba4cd; stroke:none;" d="M239 237L240 238L239 237z"/>
<path style="fill:#0b4da3; stroke:none;" d="M242 237C242.507 239.436 243.12 241.674 244 244C245.84 242.283 246.349 241.434 247 239L242 237z"/>
<path style="fill:#7ba4cf; stroke:none;" d="M249 237L250 238L249 237z"/>
<path style="fill:#7da7d3; stroke:none;" d="M266 237L267 238L266 237z"/>
<path style="fill:#05569e; stroke:none;" d="M282 237C278.471 242.038 280 250.037 280 256L282 256C282.039 251.267 282.5 246.727 282 242C286.581 242.835 289.105 242.628 293 240C288.239 238.677 286.282 241.233 282 237z"/>
<path style="fill:#3f79b7; stroke:none;" d="M284 237L285 238L284 237z"/>
<path style="fill:#8bbaea; stroke:none;" d="M285 237L286 238L285 237z"/>
<path style="fill:#87add4; stroke:none;" d="M302 237L303 238L302 237z"/>
<path style="fill:#729ac0; stroke:none;" d="M198 238L199 239L198 238z"/>
<path style="fill:#c7ebff; stroke:none;" d="M221 238L221 240C222.635 239.455 222.455 239.635 223 238L221 238z"/>
<path style="fill:#80a4d8; stroke:none;" d="M228 238L229 239L228 238z"/>
<path style="fill:#134995; stroke:none;" d="M226 253C227.094 249.613 225.273 238.249 232.525 241.702C233.726 242.274 234.85 243.317 236 244C234.984 239.303 229.486 235.851 226.179 241.229C224.11 244.594 224.96 249.48 226 253z"/>
<path style="fill:#597da2; stroke:none;" d="M232 238L233 239L232 238z"/>
<path style="fill:#b2cef1; stroke:none;" d="M239 238L240 239L239 238z"/>
<path style="fill:#4d7fb9; stroke:none;" d="M240 238L241 239L240 238z"/>
<path style="fill:#5e8fb8; stroke:none;" d="M248 238L249 239L248 238z"/>
<path style="fill:#5d88b7; stroke:none;" d="M256 238L257 239L256 238z"/>
<path style="fill:#1a4c8d; stroke:none;" d="M257 238C258.464 239.968 259.606 240.352 262 241C260.283 239.16 259.434 238.651 257 238z"/>
<path style="fill:#9db7d4; stroke:none;" d="M260 238L261 239L260 238z"/>
<path style="fill:#92d1fc; stroke:none;" d="M284 238L284 241C284.696 239.446 284.696 239.554 284 238z"/>
<path style="fill:#35699b; stroke:none;" d="M291.667 238.333C291.222 238.778 292.278 238.722 292.333 238.667C292.778 238.222 291.722 238.278 291.667 238.333z"/>
<path style="fill:#013372; stroke:none;" d="M293.667 238.333C293.222 238.778 294.278 238.722 294.333 238.667C294.778 238.222 293.722 238.278 293.667 238.333z"/>
<path style="fill:#1050ab; stroke:none;" d="M295 238C292.021 240.018 289.491 242.062 286 243C289.674 244.433 293.311 243.037 297 242C296.404 240.44 295.911 239.377 295 238z"/>
<path style="fill:#acc7e4; stroke:none;" d="M296.667 238.333C296.222 238.778 297.278 238.722 297.333 238.667C297.778 238.222 296.722 238.278 296.667 238.333z"/>
<path style="fill:#4772a0; stroke:none;" d="M303 238L304 239L303 238z"/>
<path style="fill:#a5bce0; stroke:none;" d="M192 239L193 240L192 239z"/>
<path style="fill:#719ecd; stroke:none;" d="M201 239L202 240L201 239z"/>
<path style="fill:#5e94c7; stroke:none;" d="M220 239L221 240L220 239z"/>
<path style="fill:#9ac5f2; stroke:none;" d="M240 239L241 240L240 239z"/>
<path style="fill:#6298c5; stroke:none;" d="M247.333 239.667C247.278 239.722 247.222 240.778 247.667 240.333C247.722 240.278 247.778 239.222 247.333 239.667z"/>
<path style="fill:#6a89a8; stroke:none;" d="M254 239L255 240L254 239z"/>
<path style="fill:#114980; stroke:none;" d="M261 253C251.223 253.828 253.996 244.513 257 239C252.657 241.279 250.739 246.133 252.742 250.941C254.264 254.595 258.385 255.973 261 253z"/>
<path style="fill:#6483aa; stroke:none;" d="M261 239L262 240L261 239z"/>
<path style="fill:#a5cce9; stroke:none;" d="M289 239L290 240L289 239z"/>
<path style="fill:#093e86; stroke:none;" d="M296 239C296 240.797 296.014 240.521 297 242C292.003 243.031 285.889 243.417 283 248C288.281 245.655 293.431 244.441 299 243L299 240L296 239z"/>
<path style="fill:#5984ae; stroke:none;" d="M297 239L298 240L297 239z"/>
<path style="fill:#5c84b9; stroke:none;" d="M192 240L193 241L192 240z"/>
<path style="fill:#94b9e8; stroke:none;" d="M203 240C204.248 240.685 204.548 240.749 206 241C204.752 240.315 204.452 240.251 203 240z"/>
<path style="fill:#b0cef7; stroke:none;" d="M225 240L226 241L225 240z"/>
<path style="fill:#045abb; stroke:none;" d="M227 253L237 251C236.278 248.124 235.979 244.524 233.852 242.268C231.661 239.944 228.151 240.189 226.753 243.225C225.41 246.143 226.348 250.026 227 253z"/>
<path style="fill:#779ec3; stroke:none;" d="M235 240L236 241L235 240z"/>
<path style="fill:#538ab9; stroke:none;" d="M241 240L242 241L241 240z"/>
<path style="fill:#6fa1c8; stroke:none;" d="M253 240L254 241L253 240z"/>
<path style="fill:#0054b1; stroke:none;" d="M255 253C256.195 251.777 256.316 251.58 257 250C258.186 251.036 258.604 251.339 260 252L258 246L262 245C260.436 240.749 256.121 238.652 253.873 244.059C252.59 247.145 253.797 250.143 255 253z"/>
<path style="fill:#3672ac; stroke:none;" d="M262.333 240.667C262.278 240.722 262.222 241.778 262.667 241.333C262.722 241.278 262.778 240.222 262.333 240.667z"/>
<path style="fill:#447fc2; stroke:none;" d="M268.333 240.667C268.278 240.722 268.222 241.778 268.667 241.333C268.722 241.278 268.778 240.222 268.333 240.667z"/>
<path style="fill:#c9ffff; stroke:none;" d="M285 240C286.506 240.683 287.315 240.826 289 241C287.494 240.317 286.685 240.174 285 240z"/>
<path style="fill:#4587bf; stroke:none;" d="M289 240L290 241L289 240z"/>
<path style="fill:#4482d0; stroke:none;" d="M176 241L177 242L176 241z"/>
<path style="fill:#4875a7; stroke:none;" d="M193 241L194 242L193 241z"/>
<path style="fill:#a4d0f7; stroke:none;" d="M194 241L195 242L194 241z"/>
<path style="fill:#89b7d9; stroke:none;" d="M207 241L208 242L207 241z"/>
<path style="fill:#4274a9; stroke:none;" d="M219 241L220 242L219 241z"/>
<path style="fill:#5680b6; stroke:none;" d="M225 241L226 242L225 241z"/>
<path style="fill:#abcde9; stroke:none;" d="M236 241L237 242L236 241z"/>
<path style="fill:#c2efff; stroke:none;" d="M241.333 241.667C241.278 241.722 241.222 242.778 241.667 242.333C241.722 242.278 241.778 241.222 241.333 241.667z"/>
<path style="fill:#194f8c; stroke:none;" d="M242 241C242.658 246.205 243.975 250.23 246 255C247.313 251.34 246.032 246.915 246 243C244.045 242.803 243.528 242.268 242 241z"/>
<path style="fill:#456fa2; stroke:none;" d="M252.333 241.667C252.278 241.722 252.222 242.778 252.667 242.333C252.722 242.278 252.778 241.222 252.333 241.667z"/>
<path style="fill:#0c55b4; stroke:none;" d="M261 241L262 245L258 246C258.464 248.172 259.105 249.958 260 252L257 250L256 254C257.756 253.94 265.462 253.549 262 251C264.642 249.592 266.027 248.837 267 246L269 251C269.985 248.668 269.981 246.543 270 244L264 245C263.316 242.791 262.92 242.297 261 241z"/>
<path style="fill:#93c8ef; stroke:none;" d="M263 241L264 242L263 241z"/>
<path style="fill:#0359a1; stroke:none;" d="M271 241C268.627 242.012 266.551 242.622 264 243L264 245L270 244L270 250C271.767 247.049 272.312 244.218 271 241z"/>
<path style="fill:#5790d3; stroke:none;" d="M177.667 242.333C177.222 242.778 178.278 242.722 178.333 242.667C178.778 242.222 177.722 242.278 177.667 242.333z"/>
<path style="fill:#9dd1ff; stroke:none;" d="M180 242C181.506 242.683 182.315 242.826 184 243C182.494 242.317 181.685 242.174 180 242z"/>
<path style="fill:#3870aa; stroke:none;" d="M194 242L195 243L194 242z"/>
<path style="fill:#a3c9f2; stroke:none;" d="M195.667 242.333C195.222 242.778 196.278 242.722 196.333 242.667C196.778 242.222 195.722 242.278 195.667 242.333z"/>
<path style="fill:#6892c6; stroke:none;" d="M209.667 242.333C209.222 242.778 210.278 242.722 210.333 242.667C210.778 242.222 209.722 242.278 209.667 242.333z"/>
<path style="fill:#89b2e2; stroke:none;" d="M219 242L220 243L219 242z"/>
<path style="fill:#95bbe8; stroke:none;" d="M224 242L225 243L224 242z"/>
<path style="fill:#4472a4; stroke:none;" d="M236.333 242.667C236.278 242.722 236.222 243.778 236.667 243.333C236.722 243.278 236.778 242.222 236.333 242.667z"/>
<path style="fill:#6999c8; stroke:none;" d="M246.333 242.667C246.278 242.722 246.222 243.778 246.667 243.333C246.722 243.278 246.778 242.222 246.333 242.667z"/>
<path style="fill:#94bdf1; stroke:none;" d="M264 242C265.506 242.683 266.315 242.826 268 243C266.494 242.317 265.685 242.174 264 242z"/>
<path style="fill:#0957be; stroke:none;" d="M282 242L282 246L286 245L286 243L282 242z"/>
<path style="fill:#23588b; stroke:none;" d="M304 242L304 254C305.512 250.396 305.512 245.604 304 242z"/>
<path style="fill:#64a0de; stroke:none;" d="M179.667 243.333C179.222 243.778 180.278 243.722 180.333 243.667C180.778 243.222 179.722 243.278 179.667 243.333z"/>
<path style="fill:#79b4fd; stroke:none;" d="M181 243C182.248 243.685 182.548 243.749 184 244C182.752 243.315 182.452 243.251 181 243z"/>
<path style="fill:#0a388a; stroke:none;" d="M194 243C195.875 245.323 198.076 245.594 201 246C198.769 244.047 196.934 243.459 194 243z"/>
<path style="fill:#779cd4; stroke:none;" d="M197 243L198 244L197 243z"/>
<path style="fill:#c5deff; stroke:none;" d="M198.667 243.333C198.222 243.778 199.278 243.722 199.333 243.667C199.778 243.222 198.722 243.278 198.667 243.333z"/>
<path style="fill:#96b5e7; stroke:none;" d="M211 243L212 244L211 243z"/>
<path style="fill:#3e70a2; stroke:none;" d="M224 243L224 251C225.161 248.23 225.161 245.77 224 243z"/>
<path style="fill:#99b6ec; stroke:none;" d="M251.333 243.667C251.278 243.722 251.222 244.778 251.667 244.333C251.722 244.278 251.778 243.222 251.333 243.667z"/>
<path style="fill:#7d9bb3; stroke:none;" d="M297.667 243.333C297.222 243.778 298.278 243.722 298.333 243.667C298.778 243.222 297.722 243.278 297.667 243.333z"/>
<path style="fill:#2c6ec2; stroke:none;" d="M181.667 244.333C181.222 244.778 182.278 244.722 182.333 244.667C182.778 244.222 181.722 244.278 181.667 244.333z"/>
<path style="fill:#6893c8; stroke:none;" d="M200 244L201 245L200 244z"/>
<path style="fill:#b4ddff; stroke:none;" d="M201.667 244.333C201.222 244.778 202.278 244.722 202.333 244.667C202.778 244.222 201.722 244.278 201.667 244.333z"/>
<path style="fill:#a9cbf7; stroke:none;" d="M212 244L213 245L212 244z"/>
<path style="fill:#487bb3; stroke:none;" d="M213 244L214 245L213 244z"/>
<path style="fill:#326599; stroke:none;" d="M218 244L218 249C218.83 246.969 218.83 246.031 218 244z"/>
<path style="fill:#d0efff; stroke:none;" d="M223 244L223 250C223.951 247.715 223.951 246.285 223 244z"/>
<path style="fill:#0c467a; stroke:none;" d="M236 244L236 250C236.951 247.715 236.951 246.285 236 244z"/>
<path style="fill:#8cafd7; stroke:none;" d="M237 244L237 250C237.951 247.715 237.951 246.285 237 244z"/>
<path style="fill:#7ba2d0; stroke:none;" d="M242 244L242 250C242.951 247.715 242.951 246.285 242 244z"/>
<path style="fill:#9dc7e7; stroke:none;" d="M246.333 244.667C246.278 244.722 246.222 245.778 246.667 245.333C246.722 245.278 246.778 244.222 246.333 244.667z"/>
<path style="fill:#497aa3; stroke:none;" d="M292.667 244.333C292.222 244.778 293.278 244.722 293.333 244.667C293.778 244.222 292.722 244.278 292.667 244.333z"/>
<path style="fill:#79a6ce; stroke:none;" d="M294 244C295.248 244.685 295.548 244.749 297 245C295.752 244.315 295.452 244.251 294 244z"/>
<path style="fill:#074696; stroke:none;" d="M305 244C305 250.298 306.934 258.735 299 260C301.332 260.985 303.457 260.981 306 261C306 255.638 307.087 248.974 305 244z"/>
<path style="fill:#1051ac; stroke:none;" d="M201 245L200 248C201.195 249.223 201.316 249.42 202 251C203.396 250.339 203.814 250.036 205 249C207.009 251.671 207.347 247.751 207 246C204.594 246.802 204.309 247.385 202 246L203 245L201 245z"/>
<path style="fill:#79a3ce; stroke:none;" d="M203 245C204.248 245.685 204.548 245.749 206 246C204.752 245.315 204.452 245.251 203 245z"/>
<path style="fill:#3476a5; stroke:none;" d="M214.333 245.667C214.278 245.722 214.222 246.778 214.667 246.333C214.722 246.278 214.778 245.222 214.333 245.667z"/>
<path style="fill:#769bca; stroke:none;" d="M251 245L251 250C251.83 247.969 251.83 247.03 251 245z"/>
<path style="fill:#6289bd; stroke:none;" d="M287.667 245.333C287.222 245.778 288.278 245.722 288.333 245.667C288.778 245.222 287.722 245.278 287.667 245.333z"/>
<path style="fill:#afdbff; stroke:none;" d="M289.667 245.333C289.222 245.778 290.278 245.722 290.333 245.667C290.778 245.222 289.722 245.278 289.667 245.333z"/>
<path style="fill:#0f4385; stroke:none;" d="M202 246C203.506 246.683 204.315 246.826 206 247C204.494 246.317 203.685 246.174 202 246z"/>
<path style="fill:#85a7d8; stroke:none;" d="M207 246L208 247L207 246z"/>
<path style="fill:#badfff; stroke:none;" d="M246 246L246 249C246.696 247.446 246.696 247.554 246 246z"/>
<path style="fill:#0349ab; stroke:none;" d="M267 246L265 251C267.537 251.655 269.047 252.276 271 254C271.985 251.668 271.981 249.543 272 247C271.089 248.377 270.596 249.44 270 251L267 246z"/>
<path style="fill:#81b2db; stroke:none;" d="M286 246L287 247L286 246z"/>
<path style="fill:#2b5f89; stroke:none;" d="M208.333 247.667C208.278 247.722 208.222 248.778 208.667 248.333C208.722 248.278 208.778 247.222 208.333 247.667z"/>
<path style="fill:#bee1ff; stroke:none;" d="M214 247L214 252C214.83 249.969 214.83 249.03 214 247z"/>
<path style="fill:#629eca; stroke:none;" d="M284 247L285 248L284 247z"/>
<path style="fill:#0b50a6; stroke:none;" d="M191 248C196.237 252.259 200.244 254.501 207 255L209 251C201.436 252.919 198.058 249.079 191 248z"/>
<path style="fill:#95bed8; stroke:none;" d="M209 248L210 249L209 248z"/>
<path style="fill:#094a93; stroke:none;" d="M282 248C282.001 253.997 281.581 258.745 288 261C284.472 256.578 284.077 252.902 282 248z"/>
<path style="fill:#4781af; stroke:none;" d="M283 248L284 249L283 248z"/>
<path style="fill:#8db9d2; stroke:none;" d="M291.667 248.333C291.222 248.778 292.278 248.722 292.333 248.667C292.778 248.222 291.722 248.278 291.667 248.333z"/>
<path style="fill:#5f91b7; stroke:none;" d="M293 248C294.248 248.685 294.548 248.749 296 249C294.752 248.315 294.452 248.251 293 248z"/>
<path style="fill:#234b7f; stroke:none;" d="M296 248C297.006 249.731 297.546 251.053 298 253C298.779 251.231 298.912 249.964 299 248L296 248z"/>
<path style="fill:#2c629d; stroke:none;" d="M190 249C191.506 249.683 192.315 249.826 194 250C192.494 249.317 191.685 249.174 190 249z"/>
<path style="fill:#00316b; stroke:none;" d="M208.333 249.667C208.278 249.722 208.222 250.778 208.667 250.333C208.722 250.278 208.778 249.222 208.333 249.667z"/>
<path style="fill:#28557e; stroke:none;" d="M209.333 249.667C209.278 249.722 209.222 250.778 209.667 250.333C209.722 250.278 209.778 249.222 209.333 249.667z"/>
<path style="fill:#18528a; stroke:none;" d="M215 249C213.916 258.728 206.352 259.994 198 260L198 262C205.458 261.979 219.432 259.895 215 249z"/>
<path style="fill:#0b4b94; stroke:none;" d="M218 249C218.637 256.072 221.616 260.595 229 261C223.91 257.406 221.331 254.164 218 249z"/>
<path style="fill:#6193c8; stroke:none;" d="M246.333 249.667C246.278 249.722 246.222 250.778 246.667 250.333C246.722 250.278 246.778 249.222 246.333 249.667z"/>
<path style="fill:#add8ff; stroke:none;" d="M283.333 249.667C283.278 249.722 283.222 250.778 283.667 250.333C283.722 250.278 283.778 249.222 283.333 249.667z"/>
<path style="fill:#9fbdd9; stroke:none;" d="M289 249L290 250L289 249z"/>
<path style="fill:#346492; stroke:none;" d="M290.667 249.333C290.222 249.778 291.278 249.722 291.333 249.667C291.778 249.222 290.722 249.278 290.667 249.333z"/>
<path style="fill:#03478f; stroke:none;" d="M289 253C292.393 251.223 294.453 252.18 298 253L298 249C294.102 249.048 290.231 248.791 289 253z"/>
<path style="fill:#3572b3; stroke:none;" d="M189 250L189 253C189.696 251.446 189.696 251.554 189 250z"/>
<path style="fill:#96cafe; stroke:none;" d="M190 250L190 254C190.911 252.623 191.404 251.56 192 250L190 250z"/>
<path style="fill:#bde2ff; stroke:none;" d="M192 250C193.248 250.685 193.548 250.749 195 251C193.752 250.315 193.452 250.251 192 250z"/>
<path style="fill:#2f6799; stroke:none;" d="M242.333 250.667C242.278 250.722 242.222 251.778 242.667 251.333C242.722 251.278 242.778 250.222 242.333 250.667z"/>
<path style="fill:#00377e; stroke:none;" d="M262 250C263.248 250.685 263.548 250.749 265 251C263.752 250.315 263.452 250.251 262 250z"/>
<path style="fill:#80a2c7; stroke:none;" d="M288 250L289 251L288 250z"/>
<path style="fill:#719cd3; stroke:none;" d="M195 251L196 252L195 251z"/>
<path style="fill:#779dc7; stroke:none;" d="M209 251L210 252L209 251z"/>
<path style="fill:#83adec; stroke:none;" d="M219 251L220 252L219 251z"/>
<path style="fill:#0a3f83; stroke:none;" d="M231 255C233.35 254.047 234.739 253.19 236 251C233.433 251.949 232.468 252.694 231 255z"/>
<path style="fill:#6196bc; stroke:none;" d="M236 251L237 252L236 251z"/>
<path style="fill:#0a4597; stroke:none;" d="M243 251L237 260C240.523 258.21 243.893 255.207 243 251z"/>
<path style="fill:#7e9fbf; stroke:none;" d="M252.333 251.667C252.278 251.722 252.222 252.778 252.667 252.333C252.722 252.278 252.778 251.222 252.333 251.667z"/>
<path style="fill:#99d1f7; stroke:none;" d="M264 251C265.248 251.685 265.548 251.749 267 252C265.752 251.315 265.452 251.251 264 251z"/>
<path style="fill:#538fcf; stroke:none;" d="M267 251L268 252L267 251z"/>
<path style="fill:#174c86; stroke:none;" d="M288 251C289.358 255.091 294.025 256.404 297 253C293.206 253.586 291.141 253.234 288 251z"/>
<path style="fill:#0c5cc0; stroke:none;" d="M290 251L290 254L295 254L295 251L290 251z"/>
<path style="fill:#4c75af; stroke:none;" d="M196 252L197 253L196 252z"/>
<path style="fill:#6b98c2; stroke:none;" d="M214.333 252.667C214.278 252.722 214.222 253.778 214.667 253.333C214.722 253.278 214.778 252.222 214.333 252.667z"/>
<path style="fill:#5984ae; stroke:none;" d="M225 252L226 253L225 252z"/>
<path style="fill:#074993; stroke:none;" d="M228 252C227.014 253.479 227 253.203 227 255L230 255C229.316 253.42 229.195 253.223 228 252z"/>
<path style="fill:#1962b2; stroke:none;" d="M231 252L229 256C230.452 255.749 230.752 255.685 232 255C231.703 253.659 231.661 253.095 231 252z"/>
<path style="fill:#94c1dc; stroke:none;" d="M236 252L237 253L236 252z"/>
<path style="fill:#9dcaf2; stroke:none;" d="M241 252L242 253L241 252z"/>
<path style="fill:#6a9dd2; stroke:none;" d="M247 252L247 255C247.696 253.446 247.696 253.554 247 252z"/>
<path style="fill:#88bee2; stroke:none;" d="M263 252L264 253L263 252z"/>
<path style="fill:#3573ac; stroke:none;" d="M268 252L268 255C268.696 253.446 268.696 253.554 268 252z"/>
<path style="fill:#0a3e84; stroke:none;" d="M189 253C189.406 255.092 189.217 255.02 191 256C190.309 254.612 190.015 254.139 189 253z"/>
<path style="fill:#678cbc; stroke:none;" d="M197 253L198 254L197 253z"/>
<path style="fill:#4b82b6; stroke:none;" d="M207 253L208 254L207 253z"/>
<path style="fill:#9cbfe0; stroke:none;" d="M208 253L209 254L208 253z"/>
<path style="fill:#a0caf4; stroke:none;" d="M220 253L221 254L220 253z"/>
<path style="fill:#557db2; stroke:none;" d="M226 253L227 254L226 253z"/>
<path style="fill:#25528a; stroke:none;" d="M233 253L233 255L235 255L235 253L233 253z"/>
<path style="fill:#8cb4d9; stroke:none;" d="M235 253L236 254L235 253z"/>
<path style="fill:#6698cf; stroke:none;" d="M241 253L242 254L241 253z"/>
<path style="fill:#7ba2c6; stroke:none;" d="M253 253L254 254L253 253z"/>
<path style="fill:#70a2cb; stroke:none;" d="M262 253L263 254L262 253z"/>
<path style="fill:#6293bb; stroke:none;" d="M297 253L298 254L297 253z"/>
<path style="fill:#b2cce8; stroke:none;" d="M298 253L299 254L298 253z"/>
<path style="fill:#4776a7; stroke:none;" d="M190 254L191 255L190 254z"/>
<path style="fill:#6484a7; stroke:none;" d="M198 254L199 255L198 254z"/>
<path style="fill:#043576; stroke:none;" d="M199.667 254.333C199.222 254.778 200.278 254.722 200.333 254.667C200.778 254.222 199.722 254.278 199.667 254.333z"/>
<path style="fill:#103a71; stroke:none;" d="M204.667 254.333C204.222 254.778 205.278 254.722 205.333 254.667C205.778 254.222 204.722 254.278 204.667 254.333z"/>
<path style="fill:#a4c2e3; stroke:none;" d="M207 254L208 255L207 254z"/>
<path style="fill:#6398be; stroke:none;" d="M220 254L221 255L220 254z"/>
<path style="fill:#b0c7f2; stroke:none;" d="M226 254L227 255L226 254z"/>
<path style="fill:#a2caff; stroke:none;" d="M240 254L241 255L240 254z"/>
<path style="fill:#5f8eb8; stroke:none;" d="M254 254L255 255L254 254z"/>
<path style="fill:#6894b7; stroke:none;" d="M261 254L262 255L261 254z"/>
<path style="fill:#7695b2; stroke:none;" d="M288 254L289 255L288 254z"/>
<path style="fill:#a0c5e0; stroke:none;" d="M297 254L298 255L297 254z"/>
<path style="fill:#2c69a0; stroke:none;" d="M304 254L304 259C304.83 256.97 304.83 256.03 304 254z"/>
<path style="fill:#6893c2; stroke:none;" d="M191 255L192 256L191 255z"/>
<path style="fill:#6281bb; stroke:none;" d="M200 255C201.506 255.683 202.315 255.826 204 256C202.494 255.317 201.685 255.174 200 255z"/>
<path style="fill:#bad2fd; stroke:none;" d="M204.667 255.333C204.222 255.778 205.278 255.722 205.333 255.667C205.778 255.222 204.722 255.278 204.667 255.333z"/>
<path style="fill:#85b7d6; stroke:none;" d="M213 255L214 256L213 255z"/>
<path style="fill:#8cbada; stroke:none;" d="M221 255L222 256L221 255z"/>
<path style="fill:#93bbe6; stroke:none;" d="M228 255L229 256L228 255z"/>
<path style="fill:#648dbc; stroke:none;" d="M232 255L233 256L232 255z"/>
<path style="fill:#05438c; stroke:none;" d="M247 255C249.793 262.47 258.555 263.101 265 260C262.285 259.425 259.774 260.628 257 260.282C253.204 259.809 250.094 257.012 247 255z"/>
<path style="fill:#6084b3; stroke:none;" d="M248 255L249 256L248 255z"/>
<path style="fill:#a3ceef; stroke:none;" d="M255 255L256 256L255 255z"/>
<path style="fill:#4d7aa2; stroke:none;" d="M256 255C257.248 255.685 257.548 255.749 259 256C257.752 255.315 257.452 255.251 256 255z"/>
<path style="fill:#a3c7da; stroke:none;" d="M259.667 255.333C259.222 255.778 260.278 255.722 260.333 255.667C260.778 255.222 259.722 255.278 259.667 255.333z"/>
<path style="fill:#7dacd8; stroke:none;" d="M283 255L284 256L283 255z"/>
<path style="fill:#a6c3e3; stroke:none;" d="M289 255L290 256L289 255z"/>
<path style="fill:#386198; stroke:none;" d="M290 255C291.769 255.779 293.036 255.912 295 256C293.231 255.221 291.964 255.088 290 255z"/>
<path style="fill:#7eabcf; stroke:none;" d="M295 255L296 256L295 255z"/>
<path style="fill:#7baad7; stroke:none;" d="M192 256L193 257L192 256z"/>
<path style="fill:#7aa7d0; stroke:none;" d="M212 256L213 257L212 256z"/>
<path style="fill:#a1ceff; stroke:none;" d="M222 256L223 257L222 256z"/>
<path style="fill:#729fc8; stroke:none;" d="M239 256L240 257L239 256z"/>
<path style="fill:#73a3d0; stroke:none;" d="M249 256L250 257L249 256z"/>
<path style="fill:#84a9e0; stroke:none;" d="M266 256L267 257L266 256z"/>
<path style="fill:#05499d; stroke:none;" d="M191 257C192.816 259.742 194.798 260.416 198 261C195.841 258.978 193.801 257.964 191 257z"/>
<path style="fill:#79a9d2; stroke:none;" d="M193 257L194 258L193 257z"/>
<path style="fill:#7ba6d1; stroke:none;" d="M211 257L212 258L211 257z"/>
<path style="fill:#8eb9f0; stroke:none;" d="M223 257L224 258L223 257z"/>
<path style="fill:#6a99c5; stroke:none;" d="M238 257L239 258L238 257z"/>
<path style="fill:#6595c5; stroke:none;" d="M250 257L251 258L250 257z"/>
<path style="fill:#7fa9dd; stroke:none;" d="M265 257L266 258L265 257z"/>
<path style="fill:#6fa6d4; stroke:none;" d="M284 257L285 258L284 257z"/>
<path style="fill:#88abc0; stroke:none;" d="M298 257L299 258L298 257z"/>
<path style="fill:#b8e4ff; stroke:none;" d="M303.333 257.667C303.278 257.722 303.222 258.778 303.667 258.333C303.722 258.278 303.778 257.222 303.333 257.667z"/>
<path style="fill:#6096c5; stroke:none;" d="M194 258L195 259L194 258z"/>
<path style="fill:#bbe6ff; stroke:none;" d="M195 258C196.248 258.685 196.549 258.749 198 259C196.752 258.315 196.452 258.251 195 258z"/>
<path style="fill:#8cb2e6; stroke:none;" d="M208 258C209.248 258.685 209.548 258.749 211 259C209.752 258.315 209.452 258.251 208 258z"/>
<path style="fill:#98c3e7; stroke:none;" d="M224.667 258.333C224.222 258.778 225.278 258.722 225.333 258.667C225.778 258.222 224.722 258.278 224.667 258.333z"/>
<path style="fill:#96c5f5; stroke:none;" d="M235.667 258.333C235.222 258.778 236.278 258.722 236.333 258.667C236.778 258.222 235.722 258.278 235.667 258.333z"/>
<path style="fill:#4e83ba; stroke:none;" d="M237 258L238 259L237 258z"/>
<path style="fill:#8cb8e1; stroke:none;" d="M251.667 258.333C251.222 258.778 252.278 258.722 252.333 258.667C252.778 258.222 251.722 258.278 251.667 258.333z"/>
<path style="fill:#94bfe3; stroke:none;" d="M263 258L264 259L263 258z"/>
<path style="fill:#5888ba; stroke:none;" d="M264 258L265 259L264 258z"/>
<path style="fill:#5f90ba; stroke:none;" d="M285 258L286 259L285 258z"/>
<path style="fill:#9bc1e8; stroke:none;" d="M286 258L287 259L286 258z"/>
<path style="fill:#89b5d2; stroke:none;" d="M296 258L297 259L296 258z"/>
<path style="fill:#05448d; stroke:none;" d="M288 261C292.145 262.723 296.616 261.896 299 258C295.277 259.238 291.942 260.645 288 261z"/>
<path style="fill:#6f9eca; stroke:none;" d="M197 259L198 260L197 259z"/>
<path style="fill:#6190bb; stroke:none;" d="M206.667 259.333C206.222 259.778 207.278 259.722 207.333 259.667C207.778 259.222 206.722 259.278 206.667 259.333z"/>
<path style="fill:#588ac1; stroke:none;" d="M226 259L227 260L226 259z"/>
<path style="fill:#a5cffd; stroke:none;" d="M227.667 259.333C227.222 259.778 228.278 259.722 228.333 259.667C228.778 259.222 227.722 259.278 227.667 259.333z"/>
<path style="fill:#7da8d4; stroke:none;" d="M233.667 259.333C233.222 259.778 234.278 259.722 234.333 259.667C234.778 259.222 233.722 259.278 233.667 259.333z"/>
<path style="fill:#5587b5; stroke:none;" d="M253 259L254 260L253 259z"/>
<path style="fill:#8abde1; stroke:none;" d="M254 259L255 260L254 259z"/>
<path style="fill:#9ccdee; stroke:none;" d="M260.667 259.333C260.222 259.778 261.278 259.722 261.333 259.667C261.778 259.222 260.722 259.278 260.667 259.333z"/>
<path style="fill:#578cb6; stroke:none;" d="M262 259L263 260L262 259z"/>
<path style="fill:#77b1e3; stroke:none;" d="M273 259C274.769 259.779 276.036 259.912 278 260C276.231 259.221 274.964 259.088 273 259z"/>
<path style="fill:#769ed0; stroke:none;" d="M287 259L288 260L287 259z"/>
<path style="fill:#87b9dc; stroke:none;" d="M294 259L295 260L294 259z"/>
<path style="fill:#5589b0; stroke:none;" d="M295 259L296 260L295 259z"/>
<path style="fill:#4b7bb4; stroke:none;" d="M299 259L300 260L299 259z"/>
<path style="fill:#a6d5ff; stroke:none;" d="M300.667 259.333C300.222 259.778 301.278 259.722 301.333 259.667C301.778 259.222 300.722 259.278 300.667 259.333z"/>
<path style="fill:#5c93cb; stroke:none;" d="M302.667 259.333C302.222 259.778 303.278 259.722 303.333 259.667C303.778 259.222 302.722 259.278 302.667 259.333z"/>
<path style="fill:#7ea7e0; stroke:none;" d="M310 259C311.506 259.683 312.315 259.826 314 260C312.494 259.317 311.685 259.174 310 259z"/>
<path style="fill:#305d9b; stroke:none;" d="M229 260C230.506 260.683 231.315 260.826 233 261C231.494 260.317 230.685 260.174 229 260z"/>
<path style="fill:#023e8f; stroke:none;" d="M229 261C231.523 261.99 233.358 261.617 236 261C233.607 260.259 231.507 260.698 229 261z"/>
<path style="fill:#2d6296; stroke:none;" d="M256 260C257.506 260.683 258.315 260.826 260 261C258.494 260.317 257.685 260.174 256 260z"/>
<path style="fill:#2c6593; stroke:none;" d="M288 260C289.769 260.779 291.036 260.912 293 261C291.231 260.221 289.964 260.088 288 260z"/>
</svg>
